<svg width="2182" height="715" viewBox="0 0 2182 715" fill="none" xmlns="http://www.w3.org/2000/svg">
<path d="M432.326 38.5454C447.957 43.6558 463.181 47.6425 477.499 53.7543C513.802 69.2513 537.137 96.392 546.534 134.986C549.286 146.289 551.857 157.664 553.755 169.132C554.515 173.721 553.235 178.648 552.753 185.189C549.488 182.909 547.885 182.045 546.602 180.839C544.185 178.567 542.203 175.767 539.589 173.781C534.424 169.857 530.37 171.337 530.126 177.863C529.748 187.972 528.383 198.315 534.926 207.658C537.213 210.923 537.52 215.742 538.189 219.938C539.75 229.741 541.031 239.59 542.319 249.434C542.745 252.692 543.346 256.045 543.005 259.264C541.393 274.481 539.76 289.708 537.547 304.845C536.597 311.343 534.243 317.638 532.474 324.011C532.211 324.959 531.448 325.786 531.266 326.736C525.996 354.129 506.278 370.595 486.026 386.671C457.926 408.978 426.801 426.155 394.009 440.36C379.242 446.756 363.405 449.461 347.518 451.59C339.267 452.696 330.967 453.493 322.764 454.877C300.099 458.703 279.038 454.908 259.678 442.313C252.982 437.957 246.401 433.394 239.49 429.406C217.534 416.739 204.417 396.129 191.508 375.559C187.563 369.274 185.311 361.456 184.056 354.041C179.951 329.778 176.291 305.424 173.167 281.014C170.257 258.279 173.51 235.835 178.173 213.564C179.054 209.358 180.069 205.045 179.993 200.799C179.733 186.223 182.757 172.447 188.358 159.041C191.818 150.762 194.542 142.175 197.57 133.717C204.032 115.671 214.536 100.427 230.327 89.4972C245.079 79.2866 260.091 69.329 275.71 60.5427C284.264 55.7307 294.186 53.1521 303.713 50.3089C320.929 45.1706 338.249 40.3484 355.64 35.8348C378 30.0313 400.416 29.6231 422.731 36.4291C425.59 37.3009 428.578 37.7464 432.326 38.5454ZM279.089 197.188C280.913 195.649 282.737 194.11 285.558 193.289C286.001 194.398 286.443 195.507 285.903 197.42C284.659 198.537 283.416 199.654 281.282 201.077C280.758 201.569 280.628 202.149 280.769 204.233C279.647 206.242 278.569 208.277 277.395 210.256C262.144 235.977 256.905 264.174 257.888 293.565C258.366 307.873 260.781 322.049 270.695 333.688C275.65 339.506 280.249 345.658 284.653 351.909C289.597 358.927 296.18 361.487 304.515 360.699C317.028 359.515 328.493 355.331 339.097 348.77C354.905 338.989 366.785 324.959 378.749 311.14C394.907 292.477 409.173 272.576 419.203 249.742C428.173 229.322 432.048 207.811 434.243 185.958C435.24 176.031 436.535 166.912 444.423 159.837C446.855 157.656 446.916 154.688 444.557 151.809C439.512 145.653 429.813 142.718 422.249 145.883C417.526 147.86 414.176 147.465 411.026 143.138C409.389 140.89 406.904 138.868 404.36 137.738C393.723 133.012 382.862 128.79 372.201 124.114C367.518 122.059 363.849 122.572 360.849 126.775C357.26 131.801 352.285 133.673 346.228 133.923C334.165 134.42 323.332 138.759 314.371 146.68C301.696 157.884 289.547 169.683 277.315 181.154C277.315 181.154 277.533 180.937 276.228 182.523C275.18 183.399 274.132 184.274 273.224 185.104C273.224 185.104 273.363 184.853 272.578 186.338C271.775 187.109 270.973 187.88 269.385 188.926C268.914 189.336 268.76 189.843 268.822 192.107C268.724 194.314 268.626 196.52 267.615 199.606C271.258 204.201 272.833 204.021 279.089 197.188Z" fill="#030202"/>
<path d="M1328.9 439.114C1322.09 440.135 1316.22 441.427 1310.28 442C1304.56 442.552 1302.71 441.152 1302.5 435.555C1301.62 411.628 1299.9 387.736 1304.82 363.878C1307.36 351.554 1307.5 338.745 1308.94 326.179C1312.3 296.757 1315.31 267.282 1319.37 237.954C1323.25 209.947 1328.39 182.116 1332.75 154.172C1335 139.727 1336.07 125.069 1338.92 110.753C1342.02 95.1072 1346.63 79.7626 1350.45 64.2542C1353 53.924 1355.17 43.5004 1357.77 33.1862C1359.94 24.5919 1363.26 24.044 1370.08 29.7329C1374.56 33.4691 1380.09 35.9305 1384.98 39.2116C1387.91 41.1778 1391.01 43.2319 1393.16 45.9404C1396.82 50.5533 1400.54 54.3885 1406.94 54.562C1412.04 54.6999 1413.33 58.7792 1414.22 62.7429C1416.97 75.0666 1419.55 87.4281 1422.2 99.7731C1423.32 104.974 1424.37 110.192 1425.6 115.365C1430.85 137.37 1428.71 158.97 1422.15 180.334C1419.94 187.512 1420.54 194.2 1425.81 199.88C1430.55 204.984 1435.18 210.283 1440.49 214.742C1446.02 219.387 1453.11 218.506 1456.9 212.412C1460.9 205.997 1465.12 199.049 1466.47 191.817C1468.31 181.883 1472.91 173.677 1478.12 165.617C1484.79 155.29 1492 145.312 1499.02 135.208C1508.95 120.907 1520.26 107.924 1534.23 97.3225C1537.2 95.0707 1539.2 91.4029 1541.29 88.1626C1544.7 82.8978 1546.94 76.5692 1551.24 72.2604C1559.87 63.6262 1566.75 53.174 1577.63 46.7147C1580.08 45.2593 1580.89 41.1713 1582.69 38.4543C1584.07 36.3805 1585.82 34.5579 1587.41 32.6165C1596.31 36.9008 1598.94 45.5089 1604.39 51.619C1606.37 53.8424 1607.74 56.6354 1609.8 58.7568C1613.97 63.0252 1616.89 62.7037 1620.31 57.8231C1621.78 55.7255 1622.93 53.4017 1624.67 50.415C1630.51 56.216 1634.1 62.782 1635.86 69.467C1642.96 96.4669 1649.08 123.723 1655.79 150.828C1659.79 166.982 1652.96 178.814 1640.91 188.214C1619.4 204.995 1597.38 221.125 1575.91 237.956C1562.33 248.597 1549.32 259.965 1536.15 271.113C1531.88 274.721 1527.46 277.793 1520.7 279.786C1522.62 269.805 1530.42 262.652 1526.73 252.456C1514.67 253.491 1506.5 259.243 1502.61 270.804C1502.74 271.539 1502.63 272.461 1503.02 272.787C1512.17 280.497 1517.74 291.011 1524.95 300.25C1531.26 308.338 1538.98 315.311 1545.85 322.979C1556.74 335.127 1567.67 347.253 1578.14 359.755C1585.58 368.628 1594.2 375.733 1604.9 379.983C1610.23 382.101 1612.34 385.642 1613.65 390.967C1615.22 397.372 1617.6 403.675 1620.41 409.662C1626.69 423.087 1622.64 435.364 1613.35 444.108C1608.53 448.65 1603.77 453.295 1599.32 458.201C1595.38 462.555 1591.08 463.885 1585.12 463.188C1575.01 462.006 1567.56 457.463 1560.07 450.512C1547.39 438.732 1534.25 427.569 1523.43 413.895C1512.28 399.807 1500.95 385.832 1489.05 372.38C1474.07 355.439 1458.69 338.82 1442.94 322.587C1436.03 315.463 1428.02 309.317 1420.08 303.298C1409.06 294.948 1396.98 300.084 1393.7 313.796C1389.83 329.966 1385.59 346.046 1381.47 362.155C1379.99 367.937 1377.67 373.609 1377.02 379.474C1375.75 391.028 1375.51 402.692 1374.58 414.289C1374.13 419.893 1373.7 425.63 1372.14 430.983C1369.7 439.368 1365.4 442.024 1356.55 441.912C1353.9 441.878 1351.26 441.414 1348.62 441.127C1342.35 440.448 1336.08 439.757 1328.9 439.114Z" fill="#030303"/>
<path d="M835.553 241.475C858.367 256.758 877.486 274.728 888.695 299.383C901.404 327.335 901.411 355.506 886.328 382.877C880.389 393.657 874.043 404.217 867.678 414.754C865.986 417.556 863.944 420.444 861.371 422.369C841.936 436.908 822.293 450.252 798.472 458.061C755.977 471.991 713.776 471.075 671.446 460.605C642.147 453.358 616.653 438.329 596.747 415.074C592.46 410.066 588.831 404.328 585.757 398.476C574.116 376.316 564.443 353.381 560.257 328.484C558.159 316.009 559.084 304.363 566.112 293.014C570.38 286.123 571.974 277.574 574.742 269.76C575.51 267.591 576.182 265.387 577.598 261.059C579.806 264.905 581.58 267.087 582.383 269.582C584.114 274.96 585.265 280.522 586.804 285.966C588.528 292.064 591.582 296.441 598.564 298.046C601.91 298.815 605.073 302.195 607.413 305.117C611.324 310 614.358 315.574 618.044 320.652C621.244 325.061 624.324 329.469 623.199 335.233C621.976 341.501 625.342 344.715 630.518 346.408C635.178 347.932 638.34 350.839 641.527 354.465C654.285 368.98 670.28 379.015 687.902 386.624C691.257 388.072 694.451 389.931 697.876 391.169C704.746 393.651 711.395 396.197 718.629 390.919C721.853 388.567 726.75 388.092 730.984 387.606C754.122 384.946 770.542 372.914 780.682 352.226C784.628 344.175 788.191 335.897 791.269 327.481C792.268 324.75 792.175 320.727 790.851 318.202C786.685 310.259 781.912 302.605 776.98 295.099C768.496 282.188 756.07 274.776 741.304 271.386C725.084 267.662 708.863 263.56 692.412 261.316C669.169 258.146 647.999 250.127 628.191 237.994C621.677 234.004 614.97 230.169 609.059 225.39C597.231 215.825 592.15 202.511 590.737 187.804C588.994 169.67 591.385 151.895 596.969 134.586C600.397 123.962 606.436 114.833 613.91 106.613C617.041 103.169 620.335 99.8544 623.258 96.2402C649.705 63.5341 685.301 48.4046 725.812 42.609C730.413 41.9508 735.005 41.1323 739.531 40.0833C745.247 38.7587 749.785 39.276 753.16 45.0586C756.218 50.2967 766.885 52.7081 771.531 49.4307C773.04 48.3662 773.802 45.6359 774.091 43.5544C775.197 35.593 775.081 35.7825 783.133 35.4671C799.223 34.8372 814.286 37.5296 827.422 47.66C829.752 49.4567 832.581 50.7729 835.371 51.7785C848.586 56.5411 859.029 64.5902 867.363 76.0277C879.011 92.0129 889.686 108.388 894.039 127.996C895.695 135.452 896.785 143.064 897.638 150.661C898.654 159.726 895.626 164.563 887.174 167.359C874.535 171.541 861.836 175.566 849.049 179.265C839.596 182 835.216 180.107 831.941 170.781C822.019 142.533 800.665 126.417 774.78 114.212C750.919 102.961 726.143 104.44 701.279 107.44C688.583 108.971 679.295 117.953 669.656 125.608C669.155 126.006 668.83 126.648 668.481 127.212C661.731 138.123 664.541 163.137 673.532 172.449C684.054 183.347 697.237 189.549 711.592 193.256C719.62 195.329 727.895 196.859 736.151 197.564C768.985 200.365 798.114 212.13 823.847 232.582C827.494 235.482 831.282 238.204 835.553 241.475Z" fill="#040303"/>
<path d="M1632.41 288.185C1623.13 281.642 1613.86 276.158 1605.99 269.101C1593.66 258.035 1594.3 246.994 1606.59 236.077C1607.09 235.635 1607.71 235.319 1608.16 234.834C1616.35 225.861 1626.36 223.477 1638.5 223.467C1666.45 223.444 1694.39 221.684 1722.33 220.709C1725.63 220.594 1728.96 220.811 1732.25 221.17C1740.27 222.047 1743.08 220.79 1746.67 213.662C1749.51 208.026 1751.85 202.139 1754.67 196.494C1770.89 164.067 1787.16 131.669 1803.46 99.2853C1809.14 88.004 1814.41 76.8493 1816.12 63.8797C1817.8 51.1548 1825.44 40.3152 1833.97 31.0371C1837.61 27.0835 1844.38 25.5042 1850.03 24.0376C1857.39 22.1297 1865.15 21.8112 1872.55 20.0372C1877.72 18.7974 1881.73 19.823 1885.29 23.3868C1890.93 29.0351 1896.81 34.4945 1901.95 40.5689C1905.65 44.9381 1907.85 50.0303 1904.85 56.2486C1903.79 58.4519 1904.2 61.9762 1905.14 64.4331C1914.08 87.7022 1923.6 110.753 1932.32 134.102C1941.15 157.731 1951.77 180.819 1955.66 206.063C1956.26 210.004 1956.96 213.943 1957.3 217.91C1958.3 229.601 1960.52 231.87 1972.57 233.281C1980.18 234.172 1987.78 235.103 1995.37 236.155C2000.04 236.802 2004.36 238.236 2007.17 243.069C2003.21 247.266 1998.76 248.155 1993.49 247.537C1982.42 246.241 1968.66 255.596 1966.59 266.385C1965.91 269.897 1966.84 274.556 1968.78 277.567C1973.6 285.059 1974.14 292.949 1973.99 301.456C1973.69 317.743 1973.43 334.082 1974.44 350.32C1975 359.44 1975.08 368.255 1972.62 377.001C1971.23 381.961 1971.02 386.504 1973.14 391.516C1977.25 401.256 1974.19 411.277 1972.78 421.08C1972.16 425.341 1968 426.158 1964.14 426.306C1952.26 426.76 1943.54 416.474 1944.95 403.565C1945.89 394.96 1947.09 386.381 1947.92 377.767C1948.37 373.136 1948.5 368.45 1948.4 363.797C1948.29 358.98 1946.79 354.677 1941.31 351.589C1938.65 354.992 1935.94 358.465 1933.04 362.177C1926.06 358.309 1923.2 351.718 1919.91 345.81C1917.08 340.738 1914.24 336.338 1908.88 333.483C1903.63 330.688 1901.13 325.813 1900.17 319.712C1898.63 309.881 1896.54 300.111 1894.17 290.443C1891.92 281.291 1890.23 279.841 1880.81 281.547C1864.79 284.444 1848.84 287.863 1833.08 291.882C1822.8 294.502 1813.01 299.003 1802.78 301.843C1795.45 303.877 1787.78 304.938 1780.19 305.741C1770.81 306.733 1764.54 311.195 1762.16 320.325C1759.84 329.282 1757.62 338.304 1756.13 347.425C1755.43 351.685 1756.26 351.821 1761.71 353.745C1766.12 347.816 1770.36 342.093 1774.64 336.402C1775.43 335.341 1776.28 333.709 1777.31 333.532C1784.46 332.308 1788.12 328.803 1786.51 321.119C1786.48 320.994 1789.25 320.283 1791.33 319.665C1792.56 325.925 1790.28 330.72 1787.87 335.625C1784.68 342.108 1780.16 348.543 1779.26 355.4C1777.88 365.818 1778.67 376.614 1779.44 387.185C1779.86 393.059 1785.31 395.824 1790.03 398.27C1795.34 401.02 1800.76 403.749 1806.43 405.563C1813.88 407.947 1816.27 413.384 1815.95 420.116C1815.01 439.666 1810.83 449.105 1792.37 458.253C1783.86 462.471 1774.61 463.907 1765.17 463.603C1752.52 463.197 1739.87 462.564 1727.23 462.024C1718.63 461.657 1712.06 458.178 1707.49 450.53C1705.51 447.223 1702.55 444.014 1699.26 442.073C1687.83 435.331 1676.2 428.891 1664.37 422.882C1657.19 419.231 1655.32 416.764 1657.71 408.816C1661.69 395.597 1668.21 383.76 1677.4 373.324C1689.32 359.79 1695.03 343.006 1700.95 326.411C1702.68 321.568 1699.44 319.706 1695.47 318.891C1672.06 314.094 1652.84 300.723 1632.41 288.185ZM1854.12 147.303C1849.46 134.132 1844.6 121.029 1840.25 107.757C1838.42 102.189 1834.43 99.3035 1830.08 96.1226C1824.77 100.84 1823.91 106.54 1823.54 112.636C1823.17 118.915 1823.64 125.822 1821.13 131.256C1817.78 138.541 1815.12 145.751 1814.79 153.692C1807.97 155.66 1802.48 158.487 1803.98 166.18C1806.33 178.288 1802.71 189.196 1798.38 200.142C1797.06 203.47 1796.31 207.147 1796.01 210.723C1795.66 214.913 1797.91 217.767 1802.26 218.309C1807.54 218.967 1812.84 219.639 1818.16 219.855C1832.8 220.45 1847.45 220.846 1862.1 221.25C1872.69 221.542 1875.13 218.47 1872.77 207.947C1872.34 205.998 1871.84 204.057 1871.24 202.151C1865.69 184.373 1860.11 166.602 1854.12 147.303ZM1966.77 337.779C1969.62 333.649 1966.74 331.513 1963.59 330.313C1962.33 329.834 1959.07 331.201 1958.79 332.269C1958.23 334.415 1958.43 337.3 1959.5 339.217C1961.37 342.561 1963.81 341.034 1966.77 337.779Z" fill="#040404"/>
<path d="M931.012 215.811C956.934 214.964 981.904 214.111 1006.88 213.376C1010.52 213.269 1014.19 213.647 1017.84 213.937C1029.33 214.852 1031.5 213.628 1035.95 202.809C1038.74 196.05 1040.75 188.931 1043.98 182.4C1057.07 155.869 1070.45 129.48 1083.83 103.087C1089.24 92.4046 1095.04 81.9172 1100.33 71.1778C1101.73 68.3359 1102.39 64.9122 1102.55 61.7134C1103.67 39.6374 1118.3 21.7692 1139.5 16.969C1145.02 15.7197 1150.58 14.6775 1156.07 13.2978C1162.76 11.6133 1168.55 13.042 1173.68 17.5973C1177.17 20.6889 1180.87 23.5427 1184.21 26.7767C1187.88 30.3307 1190.4 34.5398 1190.44 39.9498C1190.57 57.746 1198.13 73.434 1204.47 89.5023C1214.72 115.471 1224.62 141.578 1234.84 167.559C1240.05 180.795 1241.86 194.557 1242.19 208.632C1242.5 221.658 1245.8 224.665 1258.7 226.141C1268.58 227.271 1278.35 229.361 1288.12 231.313C1290.49 231.787 1292.63 233.395 1295.13 234.602C1293.02 240.513 1288.63 239.718 1284.91 239.982C1280.94 240.263 1276.87 239.694 1272.99 240.364C1262.68 242.143 1256.51 249.193 1256 259.542C1255.76 264.52 1256.06 269.531 1256.24 274.521C1256.76 288.476 1257.34 302.429 1257.92 316.381C1257.99 318.036 1257.88 319.786 1258.37 321.322C1260.6 328.196 1259.08 334.564 1255.7 340.532C1249.64 351.26 1248.37 363.164 1246.56 375C1244.95 385.52 1243.09 396.009 1240.98 406.441C1240.39 409.395 1238.57 412.103 1237.32 414.924C1236.67 414.802 1236.02 414.68 1235.38 414.557C1234.97 412.821 1234.27 411.095 1234.21 409.346C1234.01 404.032 1233.85 398.702 1234.06 393.393C1234.26 388.428 1233.99 383.144 1235.62 378.603C1238.4 370.809 1237.2 363.512 1235.13 356.087C1233.29 349.467 1230.99 348.099 1224.19 349.172C1222.88 349.379 1221.64 349.987 1220.34 350.234C1214.07 351.421 1211.62 350.619 1209.41 344.615C1207.36 339.079 1204.89 335.619 1198.36 335.116C1193.47 334.74 1191.8 330.269 1190.91 325.692C1188.15 311.66 1185.2 297.668 1182.33 283.659C1180.65 275.409 1179.01 274.16 1170.94 275.004C1155.38 276.631 1139.66 277.58 1125.66 285.807C1124.55 286.464 1123.16 286.749 1121.86 287.004C1102.61 290.791 1083.36 294.653 1064.07 298.258C1054.7 300.009 1052.22 301.829 1050.14 311.212C1048.27 319.656 1046.88 328.204 1045.22 336.697C1044.33 341.287 1045.62 345.103 1049.19 348.933C1061.72 340.22 1061.67 323.7 1071.81 312.563C1076.23 318.506 1077.74 323.643 1073.73 328.878C1062.4 343.682 1066.18 360.68 1066.63 377.101C1066.7 379.837 1069.37 383.294 1071.82 385.027C1079.38 390.377 1087.22 395.424 1095.34 399.881C1102.67 403.901 1103.56 404.563 1102.97 412.992C1102.71 416.645 1102.48 420.313 1101.94 423.93C1100.02 436.84 1093.19 446.278 1080.88 450.759C1074.72 453.004 1067.99 454.384 1061.44 454.766C1048.82 455.501 1036.13 455.172 1023.48 455.436C1015.44 455.604 1008.44 452.45 1001.94 448.398C983.876 437.126 965.963 425.605 948.131 413.964C942.019 409.974 941.442 406.648 943.904 399.455C948.189 386.933 954.827 376.017 964.905 367.269C971.599 361.458 975.812 353.901 979.1 345.822C982.104 338.441 984.98 331.004 987.726 323.524C990.751 315.285 988.94 311.761 980.402 309.712C945.506 301.342 916.086 283.074 889.663 259.485C880.063 250.915 880.429 242.152 889.043 232.634C900.156 220.353 913.852 215.241 931.012 215.811ZM1151.06 168.832C1145.6 153.137 1140.18 137.43 1134.68 121.752C1131.49 112.661 1128.35 103.545 1124.81 94.5893C1123.61 91.5422 1121.25 88.9495 1119.39 86.1017C1112.73 89.6697 1113.33 95.3699 1112.48 99.9315C1108.65 120.609 1103.81 141.051 1095.31 160.276C1088.91 174.774 1088.98 191.753 1077.4 204.234C1082.2 210.72 1088.81 211.898 1095.44 212.115C1114.74 212.747 1134.05 213.149 1153.36 213.306C1162.55 213.38 1164.8 210.18 1162.06 201.53C1158.74 191.065 1155.08 180.71 1151.06 168.832Z" fill="#040404"/>
<path d="M1923.31 402.368C1923.81 391.362 1917.92 383.288 1914.02 374.579C1911.49 368.93 1911.26 369.032 1912.39 361.084C1919.27 368.31 1926.18 374.408 1931.58 381.637C1935.64 387.06 1935.88 394.256 1933.89 400.895C1932.07 406.964 1928.39 407.584 1923.31 402.368Z" fill="#222020"/>
<path d="M189.933 644.475C185.293 644.475 181.571 643.798 178.768 642.445C175.964 641.091 174.321 638.82 173.838 635.63C174.418 632.826 175.578 630.845 177.318 629.685C179.058 628.525 181.184 627.945 183.698 627.945C186.018 627.945 187.999 628.331 189.643 629.105C191.286 629.878 193.268 631.473 195.588 633.89L201.243 640.705L201.243 641.575L198.923 641.575L198.923 640.415C200.759 634.905 201.871 628.525 202.258 621.275C202.741 614.025 202.983 605.131 202.983 594.595C202.983 590.728 202.983 586.571 202.983 582.125C202.983 577.581 202.934 572.313 202.838 566.32C202.838 560.326 202.789 553.125 202.693 544.715C202.693 536.305 202.596 526.251 202.403 514.555L223.138 514.555C222.944 522.578 222.799 530.746 222.703 539.06C222.703 547.373 222.703 555.686 222.703 564L222.703 593.87C222.703 601.216 222.316 607.306 221.543 612.14C220.866 616.973 219.851 620.985 218.498 624.175C217.144 627.365 215.356 630.265 213.133 632.875C209.653 637.225 205.883 640.221 201.823 641.865C197.859 643.605 193.896 644.475 189.933 644.475ZM186.308 519.34L186.308 514.555L236.623 514.555L236.623 519.34L214.148 521.37L208.928 521.37L186.308 519.34ZM235.894 622L235.894 617.215L250.394 615.33L253.004 615.33L268.809 617.215L268.809 622L235.894 622ZM246.044 622L282.004 513.975L294.764 513.975L331.449 622L310.569 622L279.974 526.88L282.874 526.88L282.439 528.91L253.149 622L246.044 622ZM261.994 587.055L263.154 582.125L309.119 582.125L310.134 587.055L261.994 587.055ZM293.749 622L293.749 617.215L313.324 615.185L320.574 615.185L340.729 617.215L340.729 622L293.749 622ZM348.01 622L348.01 617.215L370.195 615.185L376.14 615.185L398.76 617.215L398.76 622L348.01 622ZM361.64 622C361.833 613.783 361.93 605.518 361.93 597.205C361.93 588.795 361.93 580.336 361.93 571.83L361.93 564.87C361.93 556.46 361.93 548.098 361.93 539.785C361.93 531.375 361.833 522.965 361.64 514.555L382.955 514.555C382.858 522.771 382.762 531.133 382.665 539.64C382.665 548.05 382.665 556.46 382.665 564.87L382.665 575.02C382.665 581.883 382.665 589.326 382.665 597.35C382.762 605.373 382.858 613.59 382.955 622L361.64 622ZM372.37 578.645L372.37 573.425L388.755 573.425C394.942 573.425 399.968 572.265 403.835 569.945C407.798 567.625 410.698 564.435 412.535 560.375C414.468 556.315 415.435 551.578 415.435 546.165C415.435 537.561 413.357 531.036 409.2 526.59C405.14 522.143 398.953 519.92 390.64 519.92L372.37 519.92L372.37 514.555L390.93 514.555C406.397 514.555 417.562 517.358 424.425 522.965C431.385 528.571 434.865 536.353 434.865 546.31C434.865 552.303 433.367 557.765 430.37 562.695C427.373 567.528 422.492 571.395 415.725 574.295C409.055 577.195 400.21 578.645 389.19 578.645L372.37 578.645ZM348.01 519.34L348.01 514.555L372.37 514.555L372.37 521.37L370.195 521.37L348.01 519.34ZM427.906 622L427.906 617.215L442.406 615.33L445.016 615.33L460.821 617.215L460.821 622L427.906 622ZM438.056 622L474.016 513.975L486.776 513.975L523.461 622L502.581 622L471.986 526.88L474.886 526.88L474.451 528.91L445.161 622L438.056 622ZM454.006 587.055L455.166 582.125L501.131 582.125L502.146 587.055L454.006 587.055ZM485.761 622L485.761 617.215L505.336 615.185L512.586 615.185L532.741 617.215L532.741 622L485.761 622ZM539.573 622L539.573 617.215L554.943 615.185L558.858 615.185L578.723 617.215L578.723 622L539.573 622ZM553.638 622L553.638 518.615L559.148 518.615L560.598 584.155L560.598 622L553.638 622ZM607.868 519.34L607.868 514.555L647.163 514.555L647.163 519.34L631.938 521.37L628.023 521.37L607.868 519.34ZM622.368 622.58L557.553 528.33L557.118 527.895L552.188 520.5L540.153 519.34L540.153 514.555L572.343 514.555L630.053 598.8L627.298 599.815L626.863 556.75L626.863 514.555L632.808 514.555L632.808 622.58L622.368 622.58ZM657.692 622L657.692 617.215L679.877 615.185L682.052 615.185L682.052 622L657.692 622ZM671.322 622C671.516 613.783 671.612 605.518 671.612 597.205C671.612 588.795 671.612 580.336 671.612 571.83L671.612 564.87C671.612 556.46 671.612 548.098 671.612 539.785C671.612 531.375 671.516 522.965 671.322 514.555L692.637 514.555C692.541 522.771 692.444 531.133 692.347 539.64C692.347 548.146 692.347 556.895 692.347 565.885L692.347 569.945C692.347 579.225 692.347 588.118 692.347 596.625C692.444 605.131 692.541 613.59 692.637 622L671.322 622ZM682.052 622L682.052 616.635L737.442 616.635L727.147 621.42L734.107 593.145L741.647 593.145L741.502 622L682.052 622ZM682.052 569.945L682.052 564.725L717.722 564.725L717.722 569.945L682.052 569.945ZM716.127 584.445L713.952 568.35L713.952 565.305L716.127 549.5L722.652 549.5L722.652 584.445L716.127 584.445ZM657.692 519.34L657.692 514.555L682.052 514.555L682.052 521.37L679.877 521.37L657.692 519.34ZM731.207 542.54L724.247 514.99L734.542 520.065L682.052 520.065L682.052 514.555L738.602 514.555L738.892 542.54L731.207 542.54ZM787.905 624.755C782.008 624.755 776.111 623.981 770.215 622.435C764.318 620.888 759.34 618.761 755.28 616.055L756.15 592.275L763.835 592.275L771.085 619.68L762.24 615.91L760.645 610.4C765.381 613.783 769.586 616.055 773.26 617.215C776.933 618.278 781.186 618.81 786.02 618.81C793.366 618.81 799.118 617.166 803.275 613.88C807.431 610.496 809.51 605.76 809.51 599.67C809.51 596.286 808.978 593.386 807.915 590.97C806.851 588.553 805.015 586.378 802.405 584.445C799.891 582.511 796.46 580.626 792.11 578.79L785.44 575.89C776.16 571.733 769.055 567.045 764.125 561.825C759.291 556.605 756.875 549.838 756.875 541.525C756.875 535.145 758.47 529.78 761.66 525.43C764.946 520.983 769.393 517.648 775 515.425C780.703 513.105 787.18 511.945 794.43 511.945C800.133 511.945 805.353 512.67 810.09 514.12C814.826 515.473 819.08 517.455 822.85 520.065L821.835 542.685L814.15 542.685L807.045 516.585L816.615 520.645L817.775 526.445C813.715 523.158 810.186 520.886 807.19 519.63C804.29 518.373 800.81 517.745 796.75 517.745C790.273 517.745 785.005 519.291 780.945 522.385C776.885 525.478 774.855 529.876 774.855 535.58C774.855 540.8 776.305 544.956 779.205 548.05C782.105 551.143 786.213 553.85 791.53 556.17L798.78 559.36C806.03 562.55 811.781 565.74 816.035 568.93C820.385 572.12 823.478 575.648 825.315 579.515C827.248 583.381 828.215 587.973 828.215 593.29C828.215 599.573 826.62 605.083 823.43 609.82C820.24 614.46 815.648 618.133 809.655 620.84C803.661 623.45 796.411 624.755 787.905 624.755ZM840.642 622L840.642 617.215L862.827 615.185L865.002 615.185L865.002 622L840.642 622ZM854.272 622C854.465 613.783 854.562 605.518 854.562 597.205C854.562 588.795 854.562 580.336 854.562 571.83L854.562 564.87C854.562 556.46 854.562 548.098 854.562 539.785C854.562 531.375 854.465 522.965 854.272 514.555L875.587 514.555C875.49 522.771 875.393 531.133 875.297 539.64C875.297 548.146 875.297 556.895 875.297 565.885L875.297 569.945C875.297 579.225 875.297 588.118 875.297 596.625C875.393 605.131 875.49 613.59 875.587 622L854.272 622ZM865.002 622L865.002 616.635L920.392 616.635L910.097 621.42L917.057 593.145L924.597 593.145L924.452 622L865.002 622ZM865.002 569.945L865.002 564.725L900.672 564.725L900.672 569.945L865.002 569.945ZM899.077 584.445L896.902 568.35L896.902 565.305L899.077 549.5L905.602 549.5L905.602 584.445L899.077 584.445ZM840.642 519.34L840.642 514.555L865.002 514.555L865.002 521.37L862.827 521.37L840.642 519.34ZM914.157 542.54L907.197 514.99L917.492 520.065L865.002 520.065L865.002 514.555L921.552 514.555L921.842 542.54L914.157 542.54ZM973.464 622L973.464 617.215L995.649 615.185L999.854 615.185L1022.04 617.215L1022.04 622L973.464 622ZM987.094 622C987.287 613.783 987.384 605.518 987.384 597.205C987.384 588.795 987.384 580.336 987.384 571.83L987.384 564.87C987.384 556.46 987.384 548.098 987.384 539.785C987.384 531.375 987.287 522.965 987.094 514.555L1008.26 514.555C1007.97 522.771 1007.78 531.181 1007.68 539.785C1007.68 548.291 1007.68 557.378 1007.68 567.045L1007.68 570.96C1007.68 579.756 1007.68 588.36 1007.68 596.77C1007.78 605.18 1007.97 613.59 1008.26 622L987.094 622ZM1058.87 623.885C1052.88 623.885 1048.28 622.918 1045.09 620.985C1041.9 618.955 1039.92 615.378 1039.15 610.255L1033.93 588.65C1033.06 584.686 1032 581.448 1030.74 578.935C1029.48 576.325 1027.69 574.44 1025.37 573.28C1023.15 572.023 1020.06 571.395 1016.09 571.395L997.969 571.395L997.969 566.32L1018.27 566.32C1023.68 566.32 1028.13 565.256 1031.61 563.13C1035.09 560.906 1037.65 558.006 1039.29 554.43C1041.03 550.756 1041.9 546.696 1041.9 542.25C1041.9 535.096 1039.92 529.586 1035.96 525.72C1032.09 521.853 1026.2 519.92 1018.27 519.92L997.824 519.92L997.824 514.555L1023.05 514.555C1035.43 514.555 1044.9 516.971 1051.47 521.805C1058.05 526.541 1061.33 533.211 1061.33 541.815C1061.33 546.455 1060.08 550.756 1057.56 554.72C1055.15 558.683 1051.14 562.018 1045.53 564.725C1040.02 567.335 1032.67 568.93 1023.49 569.51L1023.49 567.915C1031.22 568.205 1037.17 569.268 1041.32 571.105C1045.58 572.845 1048.72 575.406 1050.75 578.79C1052.88 582.173 1054.47 586.426 1055.53 591.55L1062.06 620.26L1052.05 615.765L1074.53 617.215L1074.53 622C1072.02 622.58 1069.6 623.015 1067.28 623.305C1065.06 623.691 1062.25 623.885 1058.87 623.885ZM973.464 519.34L973.464 514.555L997.824 514.555L997.824 521.37L995.649 521.37L973.464 519.34ZM1082.36 622L1082.36 617.215L1104.54 615.185L1106.72 615.185L1106.72 622L1082.36 622ZM1095.99 622C1096.18 613.783 1096.28 605.518 1096.28 597.205C1096.28 588.795 1096.28 580.336 1096.28 571.83L1096.28 564.87C1096.28 556.46 1096.28 548.098 1096.28 539.785C1096.28 531.375 1096.18 522.965 1095.99 514.555L1117.3 514.555C1117.2 522.771 1117.11 531.133 1117.01 539.64C1117.01 548.146 1117.01 556.895 1117.01 565.885L1117.01 569.945C1117.01 579.225 1117.01 588.118 1117.01 596.625C1117.11 605.131 1117.2 613.59 1117.3 622L1095.99 622ZM1106.72 622L1106.72 616.635L1162.11 616.635L1151.81 621.42L1158.77 593.145L1166.31 593.145L1166.17 622L1106.72 622ZM1106.72 569.945L1106.72 564.725L1142.39 564.725L1142.39 569.945L1106.72 569.945ZM1140.79 584.445L1138.62 568.35L1138.62 565.305L1140.79 549.5L1147.32 549.5L1147.32 584.445L1140.79 584.445ZM1082.36 519.34L1082.36 514.555L1106.72 514.555L1106.72 521.37L1104.54 521.37L1082.36 519.34ZM1155.87 542.54L1148.91 514.99L1159.21 520.065L1106.72 520.065L1106.72 514.555L1163.27 514.555L1163.56 542.54L1155.87 542.54ZM1212.57 624.755C1206.67 624.755 1200.77 623.981 1194.88 622.435C1188.98 620.888 1184 618.761 1179.94 616.055L1180.81 592.275L1188.5 592.275L1195.75 619.68L1186.9 615.91L1185.31 610.4C1190.04 613.783 1194.25 616.055 1197.92 617.215C1201.6 618.278 1205.85 618.81 1210.68 618.81C1218.03 618.81 1223.78 617.166 1227.94 613.88C1232.09 610.496 1234.17 605.76 1234.17 599.67C1234.17 596.286 1233.64 593.386 1232.58 590.97C1231.51 588.553 1229.68 586.378 1227.07 584.445C1224.55 582.511 1221.12 580.626 1216.77 578.79L1210.1 575.89C1200.82 571.733 1193.72 567.045 1188.79 561.825C1183.95 556.605 1181.54 549.838 1181.54 541.525C1181.54 535.145 1183.13 529.78 1186.32 525.43C1189.61 520.983 1194.06 517.648 1199.66 515.425C1205.37 513.105 1211.84 511.945 1219.09 511.945C1224.8 511.945 1230.02 512.67 1234.75 514.12C1239.49 515.473 1243.74 517.455 1247.51 520.065L1246.5 542.685L1238.81 542.685L1231.71 516.585L1241.28 520.645L1242.44 526.445C1238.38 523.158 1234.85 520.886 1231.85 519.63C1228.95 518.373 1225.47 517.745 1221.41 517.745C1214.94 517.745 1209.67 519.291 1205.61 522.385C1201.55 525.478 1199.52 529.876 1199.52 535.58C1199.52 540.8 1200.97 544.956 1203.87 548.05C1206.77 551.143 1210.88 553.85 1216.19 556.17L1223.44 559.36C1230.69 562.55 1236.44 565.74 1240.7 568.93C1245.05 572.12 1248.14 575.648 1249.98 579.515C1251.91 583.381 1252.88 587.973 1252.88 593.29C1252.88 599.573 1251.28 605.083 1248.09 609.82C1244.9 614.46 1240.31 618.133 1234.32 620.84C1228.32 623.45 1221.07 624.755 1212.57 624.755ZM1281.02 622L1281.02 617.215L1303.93 615.185L1309.58 615.185L1332.93 617.215L1332.93 622L1281.02 622ZM1296.24 622C1296.44 613.783 1296.53 605.518 1296.53 597.205C1296.63 588.795 1296.68 580.336 1296.68 571.83L1296.68 564.87C1296.68 556.46 1296.63 548.098 1296.53 539.785C1296.53 531.375 1296.44 522.965 1296.24 514.555L1317.7 514.555C1317.51 522.771 1317.37 531.133 1317.27 539.64C1317.27 548.05 1317.27 556.46 1317.27 564.87L1317.27 571.685C1317.27 580.095 1317.27 588.505 1317.27 596.915C1317.37 605.228 1317.51 613.59 1317.7 622L1296.24 622ZM1259.85 544.715L1260.57 514.555L1353.23 514.555L1354.1 544.715L1346.41 544.715L1338.73 514.555L1348.44 520.065L1265.36 520.065L1275.22 514.555L1267.53 544.715L1259.85 544.715ZM1348.17 622L1348.17 617.215L1362.67 615.33L1365.28 615.33L1381.09 617.215L1381.09 622L1348.17 622ZM1358.32 622L1394.28 513.975L1407.04 513.975L1443.73 622L1422.85 622L1392.25 526.88L1395.15 526.88L1394.72 528.91L1365.43 622L1358.32 622ZM1374.27 587.055L1375.43 582.125L1421.4 582.125L1422.41 587.055L1374.27 587.055ZM1406.03 622L1406.03 617.215L1425.6 615.185L1432.85 615.185L1453.01 617.215L1453.01 622L1406.03 622ZM1505.01 624.755C1496.99 624.755 1489.88 623.305 1483.69 620.405C1477.6 617.505 1472.82 612.816 1469.34 606.34C1465.96 599.766 1464.26 590.97 1464.26 579.95L1464.26 563.855C1464.26 555.735 1464.22 547.566 1464.12 539.35C1464.12 531.036 1463.97 522.771 1463.68 514.555L1485.14 514.555C1485.05 522.771 1484.95 530.988 1484.85 539.205C1484.85 547.325 1484.85 555.541 1484.85 563.855L1484.85 577.775C1484.85 586.668 1485.87 593.773 1487.9 599.09C1489.93 604.406 1492.88 608.273 1496.74 610.69C1500.61 613.01 1505.35 614.17 1510.95 614.17C1519.85 614.17 1526.61 611.27 1531.25 605.47C1535.99 599.67 1538.26 590.1 1538.07 576.76L1537.78 514.555L1544.59 514.555L1544.16 577.92C1544.06 593.87 1540.63 605.663 1533.86 613.3C1527.19 620.936 1517.58 624.755 1505.01 624.755ZM1450.92 519.34L1450.92 514.555L1499.5 514.555L1499.5 519.34L1477.02 521.37L1473.11 521.37L1450.92 519.34ZM1520.81 519.34L1520.81 514.555L1559.24 514.555L1559.24 519.34L1543.14 521.515L1538.94 521.515L1520.81 519.34ZM1567.48 622L1567.48 617.215L1589.67 615.185L1593.87 615.185L1616.06 617.215L1616.06 622L1567.48 622ZM1581.11 622C1581.31 613.783 1581.4 605.518 1581.4 597.205C1581.4 588.795 1581.4 580.336 1581.4 571.83L1581.4 564.87C1581.4 556.46 1581.4 548.098 1581.4 539.785C1581.4 531.375 1581.31 522.965 1581.11 514.555L1602.28 514.555C1601.99 522.771 1601.8 531.181 1601.7 539.785C1601.7 548.291 1601.7 557.378 1601.7 567.045L1601.7 570.96C1601.7 579.756 1601.7 588.36 1601.7 596.77C1601.8 605.18 1601.99 613.59 1602.28 622L1581.11 622ZM1652.89 623.885C1646.89 623.885 1642.3 622.918 1639.11 620.985C1635.92 618.955 1633.94 615.378 1633.17 610.255L1627.95 588.65C1627.08 584.686 1626.01 581.448 1624.76 578.935C1623.5 576.325 1621.71 574.44 1619.39 573.28C1617.17 572.023 1614.08 571.395 1610.11 571.395L1591.99 571.395L1591.99 566.32L1612.29 566.32C1617.7 566.32 1622.15 565.256 1625.63 563.13C1629.11 560.906 1631.67 558.006 1633.31 554.43C1635.05 550.756 1635.92 546.696 1635.92 542.25C1635.92 535.096 1633.94 529.586 1629.98 525.72C1626.11 521.853 1620.21 519.92 1612.29 519.92L1591.84 519.92L1591.84 514.555L1617.07 514.555C1629.45 514.555 1638.92 516.971 1645.49 521.805C1652.07 526.541 1655.35 533.211 1655.35 541.815C1655.35 546.455 1654.1 550.756 1651.58 554.72C1649.17 558.683 1645.15 562.018 1639.55 564.725C1634.04 567.335 1626.69 568.93 1617.51 569.51L1617.51 567.915C1625.24 568.205 1631.19 569.268 1635.34 571.105C1639.6 572.845 1642.74 575.406 1644.77 578.79C1646.89 582.173 1648.49 586.426 1649.55 591.55L1656.08 620.26L1646.07 615.765L1668.55 617.215L1668.55 622C1666.03 622.58 1663.62 623.015 1661.3 623.305C1659.07 623.691 1656.27 623.885 1652.89 623.885ZM1567.48 519.34L1567.48 514.555L1591.84 514.555L1591.84 521.37L1589.67 521.37L1567.48 519.34ZM1673.29 622L1673.29 617.215L1687.79 615.33L1690.4 615.33L1706.21 617.215L1706.21 622L1673.29 622ZM1683.44 622L1719.4 513.975L1732.16 513.975L1768.85 622L1747.97 622L1717.37 526.88L1720.27 526.88L1719.84 528.91L1690.55 622L1683.44 622ZM1699.39 587.055L1700.55 582.125L1746.52 582.125L1747.53 587.055L1699.39 587.055ZM1731.15 622L1731.15 617.215L1750.72 615.185L1757.97 615.185L1778.13 617.215L1778.13 622L1731.15 622ZM1784.96 622L1784.96 617.215L1800.33 615.185L1804.24 615.185L1824.11 617.215L1824.11 622L1784.96 622ZM1799.02 622L1799.02 518.615L1804.53 518.615L1805.98 584.155L1805.98 622L1799.02 622ZM1853.25 519.34L1853.25 514.555L1892.55 514.555L1892.55 519.34L1877.32 521.37L1873.41 521.37L1853.25 519.34ZM1867.75 622.58L1802.94 528.33L1802.5 527.895L1797.57 520.5L1785.54 519.34L1785.54 514.555L1817.73 514.555L1875.44 598.8L1872.68 599.815L1872.25 556.75L1872.25 514.555L1878.19 514.555L1878.19 622.58L1867.75 622.58ZM1922.19 622L1922.19 617.215L1945.1 615.185L1950.76 615.185L1974.1 617.215L1974.1 622L1922.19 622ZM1937.42 622C1937.61 613.783 1937.71 605.518 1937.71 597.205C1937.8 588.795 1937.85 580.336 1937.85 571.83L1937.85 564.87C1937.85 556.46 1937.8 548.098 1937.71 539.785C1937.71 531.375 1937.61 522.965 1937.42 514.555L1958.88 514.555C1958.68 522.771 1958.54 531.133 1958.44 539.64C1958.44 548.05 1958.44 556.46 1958.44 564.87L1958.44 571.685C1958.44 580.095 1958.44 588.505 1958.44 596.915C1958.54 605.228 1958.68 613.59 1958.88 622L1937.42 622ZM1901.02 544.715L1901.75 514.555L1994.4 514.555L1995.27 544.715L1987.59 544.715L1979.9 514.555L1989.62 520.065L1906.53 520.065L1916.39 514.555L1908.71 544.715L1901.02 544.715Z" fill="#9A0200"/>
</svg>
