<svg width="2840" height="3166" viewBox="0 0 2840 3166" fill="none" xmlns="http://www.w3.org/2000/svg">
<path d="M1932.1 68.9488C2047.26 106.6 2159.42 135.971 2264.91 181C2532.37 295.174 2704.29 495.133 2773.52 779.474C2793.8 862.747 2812.74 946.556 2826.73 1031.04C2832.32 1064.85 2822.89 1101.15 2819.34 1149.34C2795.29 1132.55 2783.48 1126.18 2774.03 1117.29C2756.21 1100.55 2741.62 1079.93 2722.35 1065.29C2684.31 1036.38 2654.43 1047.29 2652.63 1095.37C2649.85 1169.85 2639.79 1246.05 2688 1314.88C2704.85 1338.94 2707.12 1374.44 2712.04 1405.36C2723.54 1477.58 2732.98 1550.14 2742.47 1622.67C2745.61 1646.67 2750.04 1671.38 2747.53 1695.09C2735.65 1807.2 2723.61 1919.38 2707.31 2030.91C2700.31 2078.78 2682.97 2125.16 2669.94 2172.11C2668 2179.1 2662.38 2185.19 2661.03 2192.19C2622.21 2394.01 2476.94 2515.32 2327.73 2633.76C2120.71 2798.11 1891.39 2924.66 1649.79 3029.31C1541 3076.44 1424.33 3096.37 1307.27 3112.05C1246.49 3120.2 1185.33 3126.07 1124.9 3136.27C957.916 3164.46 802.753 3136.49 660.112 3043.7C610.783 3011.61 562.298 2977.99 511.382 2948.61C349.617 2855.29 252.981 2703.44 157.87 2551.89C128.81 2505.59 112.215 2447.99 102.971 2393.36C72.7236 2214.6 45.7595 2035.17 22.7463 1855.34C1.31028 1687.83 25.2696 1522.48 59.6272 1358.4C66.1164 1327.41 73.5967 1295.63 73.0389 1264.35C71.1238 1156.96 93.3985 1055.47 134.669 956.696C160.155 895.703 180.225 832.44 202.536 770.127C250.142 637.167 327.532 524.861 443.872 444.335C552.556 369.109 663.158 295.746 778.231 231.013C841.255 195.561 914.354 176.563 984.543 155.616C1111.38 117.759 1238.98 82.2321 1367.11 48.9783C1531.85 6.2211 1697 3.21335 1861.41 53.357C1882.47 59.7799 1904.49 63.062 1932.1 68.9488ZM803.127 1237.75C816.563 1226.41 830 1215.07 850.788 1209.02C854.047 1217.19 857.306 1225.36 853.327 1239.46C844.164 1247.68 835.001 1255.91 819.281 1266.4C815.419 1270.02 814.46 1274.3 815.505 1289.65C807.236 1304.45 799.293 1319.45 790.648 1334.03C678.282 1523.52 639.684 1731.27 646.924 1947.8C650.449 2053.21 668.244 2157.65 741.28 2243.41C777.791 2286.27 811.672 2331.6 844.119 2377.65C880.542 2429.36 929.04 2448.22 990.449 2442.41C1082.64 2433.69 1167.11 2402.86 1245.23 2354.52C1361.7 2282.46 1449.22 2179.09 1537.37 2077.29C1656.41 1939.79 1761.52 1793.17 1835.42 1624.93C1901.5 1474.49 1930.05 1316.01 1946.22 1155.01C1953.57 1081.87 1963.11 1014.69 2021.22 962.566C2039.14 946.497 2039.59 924.629 2022.21 903.414C1985.04 858.06 1913.58 836.436 1857.85 859.76C1823.06 874.321 1798.38 871.413 1775.17 839.535C1763.11 822.968 1744.8 808.077 1726.06 799.75C1647.69 764.926 1567.67 733.827 1489.13 699.372C1454.63 684.234 1427.6 688.011 1405.49 718.977C1379.05 756.011 1342.4 769.804 1297.77 771.641C1208.9 775.301 1129.08 807.271 1063.06 865.631C969.681 948.177 880.174 1035.11 790.052 1119.61C790.052 1119.61 791.658 1118.01 782.047 1129.71C774.325 1136.15 766.603 1142.6 759.918 1148.72C759.918 1148.72 760.938 1146.87 755.156 1157.81C749.242 1163.49 743.328 1169.17 731.631 1176.88C728.159 1179.9 727.024 1183.63 727.486 1200.31C726.761 1216.57 726.036 1232.82 718.59 1255.56C745.429 1289.41 757.034 1288.09 803.127 1237.75Z" fill="#030202"/>
<circle cx="1386" cy="1541" r="1050" fill="#FEFDFD"/>
<path d="M729.326 1218.55C744.957 1223.66 760.182 1227.64 774.499 1233.75C810.802 1249.25 834.138 1276.39 843.534 1314.99C846.286 1326.29 848.857 1337.66 850.755 1349.13C851.515 1353.72 850.235 1358.65 849.753 1365.19C846.489 1362.91 844.885 1362.04 843.603 1360.84C841.185 1358.57 839.203 1355.77 836.589 1353.78C831.425 1349.86 827.37 1351.34 827.126 1357.86C826.748 1367.97 825.383 1378.32 831.927 1387.66C834.213 1390.92 834.521 1395.74 835.189 1399.94C836.75 1409.74 838.031 1419.59 839.319 1429.43C839.745 1432.69 840.347 1436.05 840.006 1439.26C838.393 1454.48 836.76 1469.71 834.547 1484.85C833.597 1491.34 831.243 1497.64 829.474 1504.01C829.211 1504.96 828.449 1505.79 828.266 1506.74C822.996 1534.13 803.278 1550.59 783.027 1566.67C754.927 1588.98 723.801 1606.16 691.009 1620.36C676.243 1626.76 660.406 1629.46 644.518 1631.59C636.268 1632.7 627.967 1633.49 619.764 1634.88C597.099 1638.7 576.039 1634.91 556.678 1622.31C549.982 1617.96 543.401 1613.39 536.49 1609.41C514.534 1596.74 501.417 1576.13 488.508 1555.56C484.563 1549.27 482.311 1541.46 481.056 1534.04C476.951 1509.78 473.291 1485.42 470.167 1461.01C467.258 1438.28 470.51 1415.83 475.173 1393.56C476.054 1389.36 477.069 1385.04 476.994 1380.8C476.734 1366.22 479.757 1352.45 485.359 1339.04C488.818 1330.76 491.542 1322.18 494.57 1313.72C501.032 1295.67 511.536 1280.43 527.327 1269.5C542.079 1259.29 557.091 1249.33 572.71 1240.54C581.265 1235.73 591.186 1233.15 600.713 1230.31C617.929 1225.17 635.249 1220.35 652.64 1215.83C675.001 1210.03 697.416 1209.62 719.732 1216.43C722.59 1217.3 725.579 1217.75 729.326 1218.55ZM576.089 1377.19C577.913 1375.65 579.737 1374.11 582.559 1373.29C583.001 1374.4 583.443 1375.51 582.903 1377.42C581.66 1378.54 580.416 1379.65 578.282 1381.08C577.758 1381.57 577.628 1382.15 577.77 1384.23C576.647 1386.24 575.569 1388.28 574.396 1390.26C559.144 1415.98 553.905 1444.17 554.888 1473.56C555.366 1487.87 557.782 1502.05 567.695 1513.69C572.651 1519.51 577.249 1525.66 581.653 1531.91C586.597 1538.93 593.18 1541.49 601.515 1540.7C614.028 1539.51 625.493 1535.33 636.097 1528.77C651.905 1518.99 663.785 1504.96 675.749 1491.14C691.907 1472.48 706.174 1452.58 716.204 1429.74C725.173 1409.32 729.049 1387.81 731.243 1365.96C732.24 1356.03 733.535 1346.91 741.423 1339.84C743.855 1337.66 743.917 1334.69 741.557 1331.81C736.513 1325.65 726.813 1322.72 719.249 1325.88C714.527 1327.86 711.176 1327.47 708.026 1323.14C706.389 1320.89 703.904 1318.87 701.361 1317.74C690.723 1313.01 679.862 1308.79 669.201 1304.11C664.518 1302.06 660.85 1302.57 657.849 1306.77C654.26 1311.8 649.285 1313.67 643.228 1313.92C631.166 1314.42 620.332 1318.76 611.371 1326.68C598.696 1337.88 586.547 1349.68 574.315 1361.15C574.315 1361.15 574.533 1360.94 573.228 1362.52C572.18 1363.4 571.132 1364.27 570.225 1365.1C570.225 1365.1 570.363 1364.85 569.578 1366.34C568.776 1367.11 567.973 1367.88 566.385 1368.93C565.914 1369.34 565.76 1369.84 565.823 1372.11C565.724 1374.31 565.626 1376.52 564.615 1379.61C568.258 1384.2 569.833 1384.02 576.089 1377.19Z" fill="#030202"/>
<path d="M1625.9 1619.11C1619.09 1620.14 1613.22 1621.43 1607.28 1622C1601.56 1622.55 1599.71 1621.15 1599.5 1615.56C1598.62 1591.63 1596.9 1567.74 1601.82 1543.88C1604.36 1531.55 1604.5 1518.75 1605.94 1506.18C1609.3 1476.76 1612.31 1447.28 1616.37 1417.95C1620.25 1389.95 1625.39 1362.12 1629.75 1334.17C1632 1319.73 1633.07 1305.07 1635.92 1290.75C1639.02 1275.11 1643.63 1259.76 1647.45 1244.25C1650 1233.92 1652.16 1223.5 1654.77 1213.19C1656.94 1204.59 1660.26 1204.04 1667.08 1209.73C1671.56 1213.47 1677.09 1215.93 1681.98 1219.21C1684.91 1221.18 1688.01 1223.23 1690.16 1225.94C1693.82 1230.55 1697.54 1234.39 1703.94 1234.56C1709.04 1234.7 1710.33 1238.78 1711.22 1242.74C1713.97 1255.07 1716.55 1267.43 1719.2 1279.77C1720.32 1284.97 1721.37 1290.19 1722.6 1295.37C1727.85 1317.37 1725.71 1338.97 1719.15 1360.33C1716.94 1367.51 1717.54 1374.2 1722.81 1379.88C1727.55 1384.98 1732.18 1390.28 1737.49 1394.74C1743.02 1399.39 1750.11 1398.51 1753.9 1392.41C1757.9 1386 1762.12 1379.05 1763.47 1371.82C1765.31 1361.88 1769.91 1353.68 1775.12 1345.62C1781.79 1335.29 1789 1325.31 1796.02 1315.21C1805.95 1300.91 1817.25 1287.92 1831.23 1277.32C1834.2 1275.07 1836.2 1271.4 1838.29 1268.16C1841.7 1262.9 1843.94 1256.57 1848.24 1252.26C1856.87 1243.63 1863.75 1233.17 1874.63 1226.71C1877.08 1225.26 1877.89 1221.17 1879.69 1218.45C1881.07 1216.38 1882.82 1214.56 1884.41 1212.62C1893.31 1216.9 1895.94 1225.51 1901.39 1231.62C1903.37 1233.84 1904.74 1236.64 1906.8 1238.76C1910.97 1243.03 1913.89 1242.7 1917.31 1237.82C1918.78 1235.73 1919.93 1233.4 1921.67 1230.41C1927.51 1236.22 1931.1 1242.78 1932.86 1249.47C1939.96 1276.47 1946.08 1303.72 1952.79 1330.83C1956.79 1346.98 1949.96 1358.81 1937.91 1368.21C1916.4 1385 1894.38 1401.13 1872.91 1417.96C1859.33 1428.6 1846.32 1439.97 1833.15 1451.11C1828.88 1454.72 1824.46 1457.79 1817.7 1459.79C1819.62 1449.8 1827.42 1442.65 1823.73 1432.46C1811.67 1433.49 1803.5 1439.24 1799.61 1450.8C1799.74 1451.54 1799.63 1452.46 1800.02 1452.79C1809.17 1460.5 1814.74 1471.01 1821.95 1480.25C1828.26 1488.34 1835.98 1495.31 1842.85 1502.98C1853.74 1515.13 1864.67 1527.25 1875.14 1539.76C1882.57 1548.63 1891.2 1555.73 1901.9 1559.98C1907.23 1562.1 1909.34 1565.64 1910.65 1570.97C1912.22 1577.37 1914.6 1583.68 1917.41 1589.66C1923.69 1603.09 1919.64 1615.36 1910.35 1624.11C1905.53 1628.65 1900.77 1633.3 1896.32 1638.2C1892.38 1642.55 1888.08 1643.89 1882.12 1643.19C1872.01 1642.01 1864.56 1637.46 1857.07 1630.51C1844.39 1618.73 1831.25 1607.57 1820.43 1593.9C1809.28 1579.81 1797.95 1565.83 1786.05 1552.38C1771.07 1535.44 1755.69 1518.82 1739.94 1502.59C1733.03 1495.46 1725.02 1489.32 1717.08 1483.3C1706.06 1474.95 1693.98 1480.08 1690.7 1493.8C1686.83 1509.97 1682.59 1526.05 1678.47 1542.16C1676.99 1547.94 1674.67 1553.61 1674.02 1559.47C1672.75 1571.03 1672.51 1582.69 1671.58 1594.29C1671.13 1599.89 1670.7 1605.63 1669.14 1610.98C1666.7 1619.37 1662.4 1622.02 1653.55 1621.91C1650.9 1621.88 1648.26 1621.41 1645.62 1621.13C1639.35 1620.45 1633.08 1619.76 1625.9 1619.11Z" fill="#030303"/>
<path d="M1132.55 1421.47C1155.37 1436.76 1174.49 1454.73 1185.7 1479.38C1198.4 1507.33 1198.41 1535.51 1183.33 1562.88C1177.39 1573.66 1171.04 1584.22 1164.68 1594.75C1162.99 1597.56 1160.94 1600.44 1158.37 1602.37C1138.94 1616.91 1119.29 1630.25 1095.47 1638.06C1052.98 1651.99 1010.78 1651.08 968.446 1640.6C939.148 1633.36 913.653 1618.33 893.747 1595.07C889.46 1590.07 885.831 1584.33 882.757 1578.48C871.116 1556.32 861.443 1533.38 857.257 1508.48C855.16 1496.01 856.084 1484.36 863.113 1473.01C867.38 1466.12 868.974 1457.57 871.742 1449.76C872.51 1447.59 873.182 1445.39 874.598 1441.06C876.806 1444.91 878.58 1447.09 879.383 1449.58C881.114 1454.96 882.265 1460.52 883.804 1465.97C885.528 1472.06 888.583 1476.44 895.564 1478.05C898.91 1478.82 902.073 1482.19 904.413 1485.12C908.324 1490 911.358 1495.57 915.044 1500.65C918.244 1505.06 921.324 1509.47 920.199 1515.23C918.976 1521.5 922.343 1524.71 927.518 1526.41C932.178 1527.93 935.34 1530.84 938.528 1534.47C951.285 1548.98 967.28 1559.01 984.902 1566.62C988.257 1568.07 991.452 1569.93 994.876 1571.17C1001.75 1573.65 1008.4 1576.2 1015.63 1570.92C1018.85 1568.57 1023.75 1568.09 1027.98 1567.61C1051.12 1564.95 1067.54 1552.91 1077.68 1532.23C1081.63 1524.17 1085.19 1515.9 1088.27 1507.48C1089.27 1504.75 1089.18 1500.73 1087.85 1498.2C1083.69 1490.26 1078.91 1482.61 1073.98 1475.1C1065.5 1462.19 1053.07 1454.78 1038.3 1451.39C1022.08 1447.66 1005.86 1443.56 989.412 1441.32C966.169 1438.15 944.999 1430.13 925.191 1417.99C918.678 1414 911.971 1410.17 906.059 1405.39C894.231 1395.83 889.15 1382.51 887.737 1367.8C885.995 1349.67 888.385 1331.9 893.969 1314.59C897.397 1303.96 903.436 1294.83 910.91 1286.61C914.042 1283.17 917.336 1279.85 920.258 1276.24C946.705 1243.53 982.301 1228.4 1022.81 1222.61C1027.41 1221.95 1032.01 1221.13 1036.53 1220.08C1042.25 1218.76 1046.78 1219.28 1050.16 1225.06C1053.22 1230.3 1063.89 1232.71 1068.53 1229.43C1070.04 1228.37 1070.8 1225.64 1071.09 1223.55C1072.2 1215.59 1072.08 1215.78 1080.13 1215.47C1096.22 1214.84 1111.29 1217.53 1124.42 1227.66C1126.75 1229.46 1129.58 1230.77 1132.37 1231.78C1145.59 1236.54 1156.03 1244.59 1164.36 1256.03C1176.01 1272.01 1186.69 1288.39 1191.04 1308C1192.7 1315.45 1193.79 1323.06 1194.64 1330.66C1195.65 1339.73 1192.63 1344.56 1184.17 1347.36C1171.54 1351.54 1158.84 1355.57 1146.05 1359.27C1136.6 1362 1132.22 1360.11 1128.94 1350.78C1119.02 1322.53 1097.67 1306.42 1071.78 1294.21C1047.92 1282.96 1023.14 1284.44 998.279 1287.44C985.583 1288.97 976.295 1297.95 966.657 1305.61C966.156 1306.01 965.83 1306.65 965.482 1307.21C958.731 1318.12 961.541 1343.14 970.532 1352.45C981.054 1363.35 994.237 1369.55 1008.59 1373.26C1016.62 1375.33 1024.9 1376.86 1033.15 1377.56C1065.99 1380.37 1095.11 1392.13 1120.85 1412.58C1124.49 1415.48 1128.28 1418.2 1132.55 1421.47Z" fill="#040303"/>
<path d="M1929.41 1468.19C1920.13 1461.64 1910.86 1456.16 1902.99 1449.1C1890.66 1438.04 1891.3 1426.99 1903.59 1416.08C1904.09 1415.63 1904.71 1415.32 1905.16 1414.83C1913.35 1405.86 1923.36 1403.48 1935.5 1403.47C1963.45 1403.44 1991.39 1401.68 2019.33 1400.71C2022.63 1400.59 2025.96 1400.81 2029.25 1401.17C2037.27 1402.05 2040.08 1400.79 2043.67 1393.66C2046.51 1388.03 2048.85 1382.14 2051.67 1376.49C2067.89 1344.07 2084.16 1311.67 2100.46 1279.29C2106.14 1268 2111.41 1256.85 2113.12 1243.88C2114.8 1231.15 2122.44 1220.32 2130.97 1211.04C2134.61 1207.08 2141.38 1205.5 2147.03 1204.04C2154.39 1202.13 2162.15 1201.81 2169.55 1200.04C2174.72 1198.8 2178.73 1199.82 2182.29 1203.39C2187.93 1209.04 2193.81 1214.49 2198.95 1220.57C2202.65 1224.94 2204.85 1230.03 2201.85 1236.25C2200.79 1238.45 2201.2 1241.98 2202.14 1244.43C2211.08 1267.7 2220.6 1290.75 2229.32 1314.1C2238.15 1337.73 2248.77 1360.82 2252.66 1386.06C2253.26 1390 2253.96 1393.94 2254.3 1397.91C2255.3 1409.6 2257.52 1411.87 2269.57 1413.28C2277.18 1414.17 2284.78 1415.1 2292.37 1416.15C2297.04 1416.8 2301.36 1418.24 2304.17 1423.07C2300.21 1427.27 2295.76 1428.15 2290.49 1427.54C2279.42 1426.24 2265.66 1435.6 2263.59 1446.38C2262.91 1449.9 2263.84 1454.56 2265.78 1457.57C2270.6 1465.06 2271.14 1472.95 2270.99 1481.46C2270.69 1497.74 2270.43 1514.08 2271.44 1530.32C2272 1539.44 2272.08 1548.25 2269.62 1557C2268.23 1561.96 2268.02 1566.5 2270.14 1571.52C2274.25 1581.26 2271.19 1591.28 2269.78 1601.08C2269.16 1605.34 2265 1606.16 2261.14 1606.31C2249.26 1606.76 2240.54 1596.47 2241.95 1583.57C2242.89 1574.96 2244.09 1566.38 2244.92 1557.77C2245.37 1553.14 2245.5 1548.45 2245.4 1543.8C2245.29 1538.98 2243.79 1534.68 2238.31 1531.59C2235.65 1534.99 2232.94 1538.46 2230.04 1542.18C2223.06 1538.31 2220.2 1531.72 2216.91 1525.81C2214.08 1520.74 2211.24 1516.34 2205.88 1513.48C2200.63 1510.69 2198.13 1505.81 2197.17 1499.71C2195.63 1489.88 2193.54 1480.11 2191.17 1470.44C2188.92 1461.29 2187.23 1459.84 2177.81 1461.55C2161.79 1464.44 2145.84 1467.86 2130.08 1471.88C2119.8 1474.5 2110.01 1479 2099.78 1481.84C2092.45 1483.88 2084.78 1484.94 2077.19 1485.74C2067.81 1486.73 2061.54 1491.19 2059.16 1500.33C2056.84 1509.28 2054.62 1518.3 2053.13 1527.42C2052.43 1531.69 2053.26 1531.82 2058.71 1533.74C2063.12 1527.82 2067.36 1522.09 2071.64 1516.4C2072.43 1515.34 2073.28 1513.71 2074.31 1513.53C2081.46 1512.31 2085.12 1508.8 2083.51 1501.12C2083.48 1500.99 2086.25 1500.28 2088.33 1499.66C2089.56 1505.93 2087.28 1510.72 2084.87 1515.63C2081.68 1522.11 2077.16 1528.54 2076.26 1535.4C2074.88 1545.82 2075.67 1556.61 2076.44 1567.19C2076.86 1573.06 2082.31 1575.82 2087.03 1578.27C2092.34 1581.02 2097.76 1583.75 2103.43 1585.56C2110.88 1587.95 2113.27 1593.38 2112.95 1600.12C2112.01 1619.67 2107.83 1629.11 2089.37 1638.25C2080.86 1642.47 2071.61 1643.91 2062.17 1643.6C2049.52 1643.2 2036.87 1642.56 2024.23 1642.02C2015.63 1641.66 2009.06 1638.18 2004.49 1630.53C2002.51 1627.22 1999.55 1624.01 1996.26 1622.07C1984.83 1615.33 1973.2 1608.89 1961.37 1602.88C1954.19 1599.23 1952.32 1596.76 1954.71 1588.82C1958.69 1575.6 1965.21 1563.76 1974.4 1553.32C1986.32 1539.79 1992.03 1523.01 1997.95 1506.41C1999.68 1501.57 1996.44 1499.71 1992.47 1498.89C1969.06 1494.09 1949.84 1480.72 1929.41 1468.19ZM2151.12 1327.3C2146.46 1314.13 2141.6 1301.03 2137.25 1287.76C2135.42 1282.19 2131.43 1279.3 2127.08 1276.12C2121.77 1280.84 2120.91 1286.54 2120.54 1292.64C2120.17 1298.92 2120.64 1305.82 2118.13 1311.26C2114.78 1318.54 2112.12 1325.75 2111.79 1333.69C2104.97 1335.66 2099.48 1338.49 2100.98 1346.18C2103.33 1358.29 2099.71 1369.2 2095.38 1380.14C2094.06 1383.47 2093.31 1387.15 2093.01 1390.72C2092.66 1394.91 2094.91 1397.77 2099.26 1398.31C2104.54 1398.97 2109.84 1399.64 2115.16 1399.85C2129.8 1400.45 2144.45 1400.85 2159.1 1401.25C2169.69 1401.54 2172.13 1398.47 2169.77 1387.95C2169.34 1386 2168.84 1384.06 2168.24 1382.15C2162.69 1364.37 2157.11 1346.6 2151.12 1327.3ZM2263.77 1517.78C2266.62 1513.65 2263.74 1511.51 2260.59 1510.31C2259.33 1509.83 2256.07 1511.2 2255.79 1512.27C2255.23 1514.42 2255.43 1517.3 2256.5 1519.22C2258.37 1522.56 2260.81 1521.03 2263.77 1517.78Z" fill="#040404"/>
<path d="M1228.01 1395.81C1253.93 1394.96 1278.9 1394.11 1303.88 1393.38C1307.52 1393.27 1311.19 1393.65 1314.84 1393.94C1326.33 1394.85 1328.5 1393.63 1332.95 1382.81C1335.74 1376.05 1337.75 1368.93 1340.98 1362.4C1354.07 1335.87 1367.45 1309.48 1380.83 1283.09C1386.24 1272.4 1392.04 1261.92 1397.33 1251.18C1398.73 1248.34 1399.39 1244.91 1399.55 1241.71C1400.67 1219.64 1415.3 1201.77 1436.5 1196.97C1442.02 1195.72 1447.58 1194.68 1453.07 1193.3C1459.76 1191.61 1465.55 1193.04 1470.68 1197.6C1474.17 1200.69 1477.87 1203.54 1481.21 1206.78C1484.88 1210.33 1487.4 1214.54 1487.44 1219.95C1487.57 1237.75 1495.13 1253.43 1501.47 1269.5C1511.72 1295.47 1521.62 1321.58 1531.84 1347.56C1537.05 1360.8 1538.86 1374.56 1539.19 1388.63C1539.5 1401.66 1542.8 1404.66 1555.7 1406.14C1565.58 1407.27 1575.35 1409.36 1585.12 1411.31C1587.49 1411.79 1589.63 1413.4 1592.13 1414.6C1590.02 1420.51 1585.63 1419.72 1581.91 1419.98C1577.94 1420.26 1573.87 1419.69 1569.99 1420.36C1559.68 1422.14 1553.51 1429.19 1553 1439.54C1552.76 1444.52 1553.06 1449.53 1553.24 1454.52C1553.76 1468.48 1554.34 1482.43 1554.92 1496.38C1554.99 1498.04 1554.88 1499.79 1555.37 1501.32C1557.6 1508.2 1556.08 1514.56 1552.7 1520.53C1546.64 1531.26 1545.37 1543.16 1543.56 1555C1541.95 1565.52 1540.09 1576.01 1537.98 1586.44C1537.39 1589.4 1535.57 1592.1 1534.32 1594.92C1533.67 1594.8 1533.02 1594.68 1532.38 1594.56C1531.97 1592.82 1531.27 1591.09 1531.21 1589.35C1531.01 1584.03 1530.85 1578.7 1531.06 1573.39C1531.26 1568.43 1530.99 1563.14 1532.62 1558.6C1535.4 1550.81 1534.2 1543.51 1532.13 1536.09C1530.29 1529.47 1527.99 1528.1 1521.19 1529.17C1519.88 1529.38 1518.64 1529.99 1517.34 1530.23C1511.07 1531.42 1508.62 1530.62 1506.41 1524.62C1504.36 1519.08 1501.89 1515.62 1495.36 1515.12C1490.47 1514.74 1488.8 1510.27 1487.91 1505.69C1485.15 1491.66 1482.2 1477.67 1479.33 1463.66C1477.65 1455.41 1476.01 1454.16 1467.94 1455C1452.38 1456.63 1436.66 1457.58 1422.66 1465.81C1421.55 1466.46 1420.16 1466.75 1418.86 1467C1399.61 1470.79 1380.36 1474.65 1361.07 1478.26C1351.7 1480.01 1349.22 1481.83 1347.14 1491.21C1345.27 1499.66 1343.88 1508.2 1342.22 1516.7C1341.33 1521.29 1342.62 1525.1 1346.19 1528.93C1358.72 1520.22 1358.67 1503.7 1368.81 1492.56C1373.23 1498.51 1374.74 1503.64 1370.73 1508.88C1359.4 1523.68 1363.18 1540.68 1363.63 1557.1C1363.7 1559.84 1366.37 1563.29 1368.82 1565.03C1376.38 1570.38 1384.22 1575.42 1392.34 1579.88C1399.67 1583.9 1400.56 1584.56 1399.97 1592.99C1399.71 1596.64 1399.48 1600.31 1398.94 1603.93C1397.02 1616.84 1390.19 1626.28 1377.88 1630.76C1371.72 1633 1364.99 1634.38 1358.44 1634.77C1345.82 1635.5 1333.13 1635.17 1320.48 1635.44C1312.44 1635.6 1305.44 1632.45 1298.94 1628.4C1280.88 1617.13 1262.96 1605.61 1245.13 1593.96C1239.02 1589.97 1238.44 1586.65 1240.9 1579.45C1245.19 1566.93 1251.83 1556.02 1261.91 1547.27C1268.6 1541.46 1272.81 1533.9 1276.1 1525.82C1279.1 1518.44 1281.98 1511 1284.73 1503.52C1287.75 1495.28 1285.94 1491.76 1277.4 1489.71C1242.51 1481.34 1213.09 1463.07 1186.66 1439.48C1177.06 1430.91 1177.43 1422.15 1186.04 1412.63C1197.16 1400.35 1210.85 1395.24 1228.01 1395.81ZM1448.06 1348.83C1442.6 1333.14 1437.18 1317.43 1431.68 1301.75C1428.49 1292.66 1425.35 1283.55 1421.81 1274.59C1420.61 1271.54 1418.25 1268.95 1416.39 1266.1C1409.73 1269.67 1410.33 1275.37 1409.48 1279.93C1405.65 1300.61 1400.81 1321.05 1392.31 1340.28C1385.91 1354.77 1385.98 1371.75 1374.4 1384.23C1379.2 1390.72 1385.81 1391.9 1392.44 1392.12C1411.74 1392.75 1431.05 1393.15 1450.36 1393.31C1459.55 1393.38 1461.8 1390.18 1459.06 1381.53C1455.74 1371.06 1452.08 1360.71 1448.06 1348.83Z" fill="#040404"/>
<path d="M2220.31 1582.37C2220.81 1571.36 2214.92 1563.29 2211.02 1554.58C2208.49 1548.93 2208.26 1549.03 2209.39 1541.08C2216.27 1548.31 2223.18 1554.41 2228.58 1561.64C2232.64 1567.06 2232.88 1574.26 2230.89 1580.9C2229.07 1586.96 2225.39 1587.58 2220.31 1582.37Z" fill="#222020"/>
<path d="M486.933 1824.47C482.293 1824.47 478.571 1823.8 475.768 1822.44C472.964 1821.09 471.321 1818.82 470.838 1815.63C471.418 1812.83 472.578 1810.84 474.318 1809.68C476.058 1808.52 478.184 1807.94 480.698 1807.94C483.018 1807.94 484.999 1808.33 486.643 1809.1C488.286 1809.88 490.268 1811.47 492.588 1813.89L498.243 1820.7L498.243 1821.57L495.923 1821.57L495.923 1820.41C497.759 1814.9 498.871 1808.52 499.258 1801.27C499.741 1794.02 499.983 1785.13 499.983 1774.59C499.983 1770.73 499.983 1766.57 499.983 1762.12C499.983 1757.58 499.934 1752.31 499.838 1746.32C499.838 1740.33 499.789 1733.12 499.693 1724.71C499.693 1716.3 499.596 1706.25 499.403 1694.55L520.138 1694.55C519.944 1702.58 519.799 1710.75 519.703 1719.06C519.703 1727.37 519.703 1735.69 519.703 1744L519.703 1773.87C519.703 1781.22 519.316 1787.31 518.543 1792.14C517.866 1796.97 516.851 1800.98 515.498 1804.17C514.144 1807.36 512.356 1810.26 510.133 1812.87C506.653 1817.22 502.883 1820.22 498.823 1821.86C494.859 1823.6 490.896 1824.47 486.933 1824.47ZM483.308 1699.34L483.308 1694.55L533.623 1694.55L533.623 1699.34L511.148 1701.37L505.928 1701.37L483.308 1699.34ZM532.894 1802L532.894 1797.21L547.394 1795.33L550.004 1795.33L565.809 1797.21L565.809 1802L532.894 1802ZM543.044 1802L579.004 1693.97L591.764 1693.97L628.449 1802L607.569 1802L576.974 1706.88L579.874 1706.88L579.439 1708.91L550.149 1802L543.044 1802ZM558.994 1767.05L560.154 1762.12L606.119 1762.12L607.134 1767.05L558.994 1767.05ZM590.749 1802L590.749 1797.21L610.324 1795.18L617.574 1795.18L637.729 1797.21L637.729 1802L590.749 1802ZM645.01 1802L645.01 1797.21L667.195 1795.18L673.14 1795.18L695.76 1797.21L695.76 1802L645.01 1802ZM658.64 1802C658.833 1793.78 658.93 1785.52 658.93 1777.2C658.93 1768.79 658.93 1760.34 658.93 1751.83L658.93 1744.87C658.93 1736.46 658.93 1728.1 658.93 1719.78C658.93 1711.37 658.833 1702.96 658.64 1694.55L679.955 1694.55C679.858 1702.77 679.762 1711.13 679.665 1719.64C679.665 1728.05 679.665 1736.46 679.665 1744.87L679.665 1755.02C679.665 1761.88 679.665 1769.33 679.665 1777.35C679.762 1785.37 679.858 1793.59 679.955 1802L658.64 1802ZM669.37 1758.64L669.37 1753.42L685.755 1753.42C691.942 1753.42 696.968 1752.26 700.835 1749.94C704.798 1747.62 707.698 1744.43 709.535 1740.37C711.468 1736.31 712.435 1731.58 712.435 1726.16C712.435 1717.56 710.357 1711.04 706.2 1706.59C702.14 1702.14 695.953 1699.92 687.64 1699.92L669.37 1699.92L669.37 1694.55L687.93 1694.55C703.397 1694.55 714.562 1697.36 721.425 1702.96C728.385 1708.57 731.865 1716.35 731.865 1726.31C731.865 1732.3 730.367 1737.76 727.37 1742.69C724.373 1747.53 719.492 1751.39 712.725 1754.29C706.055 1757.19 697.21 1758.64 686.19 1758.64L669.37 1758.64ZM645.01 1699.34L645.01 1694.55L669.37 1694.55L669.37 1701.37L667.195 1701.37L645.01 1699.34ZM724.906 1802L724.906 1797.21L739.406 1795.33L742.016 1795.33L757.821 1797.21L757.821 1802L724.906 1802ZM735.056 1802L771.016 1693.97L783.776 1693.97L820.461 1802L799.581 1802L768.986 1706.88L771.886 1706.88L771.451 1708.91L742.161 1802L735.056 1802ZM751.006 1767.05L752.166 1762.12L798.131 1762.12L799.146 1767.05L751.006 1767.05ZM782.761 1802L782.761 1797.21L802.336 1795.18L809.586 1795.18L829.741 1797.21L829.741 1802L782.761 1802ZM836.573 1802L836.573 1797.21L851.943 1795.18L855.858 1795.18L875.723 1797.21L875.723 1802L836.573 1802ZM850.638 1802L850.638 1698.61L856.148 1698.61L857.598 1764.15L857.598 1802L850.638 1802ZM904.868 1699.34L904.868 1694.55L944.163 1694.55L944.163 1699.34L928.938 1701.37L925.023 1701.37L904.868 1699.34ZM919.368 1802.58L854.553 1708.33L854.118 1707.89L849.188 1700.5L837.153 1699.34L837.153 1694.55L869.343 1694.55L927.053 1778.8L924.298 1779.81L923.863 1736.75L923.863 1694.55L929.808 1694.55L929.808 1802.58L919.368 1802.58ZM954.692 1802L954.692 1797.21L976.877 1795.18L979.052 1795.18L979.052 1802L954.692 1802ZM968.322 1802C968.516 1793.78 968.612 1785.52 968.612 1777.2C968.612 1768.79 968.612 1760.34 968.612 1751.83L968.612 1744.87C968.612 1736.46 968.612 1728.1 968.612 1719.78C968.612 1711.37 968.516 1702.96 968.322 1694.55L989.637 1694.55C989.541 1702.77 989.444 1711.13 989.347 1719.64C989.347 1728.15 989.347 1736.89 989.347 1745.88L989.347 1749.94C989.347 1759.22 989.347 1768.12 989.347 1776.62C989.444 1785.13 989.541 1793.59 989.637 1802L968.322 1802ZM979.052 1802L979.052 1796.63L1034.44 1796.63L1024.15 1801.42L1031.11 1773.14L1038.65 1773.14L1038.5 1802L979.052 1802ZM979.052 1749.94L979.052 1744.72L1014.72 1744.72L1014.72 1749.94L979.052 1749.94ZM1013.13 1764.44L1010.95 1748.35L1010.95 1745.3L1013.13 1729.5L1019.65 1729.5L1019.65 1764.44L1013.13 1764.44ZM954.692 1699.34L954.692 1694.55L979.052 1694.55L979.052 1701.37L976.877 1701.37L954.692 1699.34ZM1028.21 1722.54L1021.25 1694.99L1031.54 1700.06L979.052 1700.06L979.052 1694.55L1035.6 1694.55L1035.89 1722.54L1028.21 1722.54ZM1084.9 1804.75C1079.01 1804.75 1073.11 1803.98 1067.21 1802.43C1061.32 1800.89 1056.34 1798.76 1052.28 1796.05L1053.15 1772.27L1060.83 1772.27L1068.08 1799.68L1059.24 1795.91L1057.64 1790.4C1062.38 1793.78 1066.59 1796.05 1070.26 1797.21C1073.93 1798.28 1078.19 1798.81 1083.02 1798.81C1090.37 1798.81 1096.12 1797.17 1100.27 1793.88C1104.43 1790.5 1106.51 1785.76 1106.51 1779.67C1106.51 1776.29 1105.98 1773.39 1104.91 1770.97C1103.85 1768.55 1102.01 1766.38 1099.4 1764.44C1096.89 1762.51 1093.46 1760.63 1089.11 1758.79L1082.44 1755.89C1073.16 1751.73 1066.05 1747.04 1061.12 1741.82C1056.29 1736.6 1053.87 1729.84 1053.87 1721.52C1053.87 1715.14 1055.47 1709.78 1058.66 1705.43C1061.95 1700.98 1066.39 1697.65 1072 1695.42C1077.7 1693.1 1084.18 1691.94 1091.43 1691.94C1097.13 1691.94 1102.35 1692.67 1107.09 1694.12C1111.83 1695.47 1116.08 1697.45 1119.85 1700.06L1118.83 1722.68L1111.15 1722.68L1104.04 1696.58L1113.61 1700.64L1114.77 1706.44C1110.71 1703.16 1107.19 1700.89 1104.19 1699.63C1101.29 1698.37 1097.81 1697.74 1093.75 1697.74C1087.27 1697.74 1082 1699.29 1077.94 1702.38C1073.88 1705.48 1071.85 1709.88 1071.85 1715.58C1071.85 1720.8 1073.3 1724.96 1076.2 1728.05C1079.1 1731.14 1083.21 1733.85 1088.53 1736.17L1095.78 1739.36C1103.03 1742.55 1108.78 1745.74 1113.03 1748.93C1117.38 1752.12 1120.48 1755.65 1122.31 1759.51C1124.25 1763.38 1125.21 1767.97 1125.21 1773.29C1125.21 1779.57 1123.62 1785.08 1120.43 1789.82C1117.24 1794.46 1112.65 1798.13 1106.65 1800.84C1100.66 1803.45 1093.41 1804.75 1084.9 1804.75ZM1137.64 1802L1137.64 1797.21L1159.83 1795.18L1162 1795.18L1162 1802L1137.64 1802ZM1151.27 1802C1151.47 1793.78 1151.56 1785.52 1151.56 1777.2C1151.56 1768.79 1151.56 1760.34 1151.56 1751.83L1151.56 1744.87C1151.56 1736.46 1151.56 1728.1 1151.56 1719.78C1151.56 1711.37 1151.47 1702.96 1151.27 1694.55L1172.59 1694.55C1172.49 1702.77 1172.39 1711.13 1172.3 1719.64C1172.3 1728.15 1172.3 1736.89 1172.3 1745.88L1172.3 1749.94C1172.3 1759.22 1172.3 1768.12 1172.3 1776.62C1172.39 1785.13 1172.49 1793.59 1172.59 1802L1151.27 1802ZM1162 1802L1162 1796.63L1217.39 1796.63L1207.1 1801.42L1214.06 1773.14L1221.6 1773.14L1221.45 1802L1162 1802ZM1162 1749.94L1162 1744.72L1197.67 1744.72L1197.67 1749.94L1162 1749.94ZM1196.08 1764.44L1193.9 1748.35L1193.9 1745.3L1196.08 1729.5L1202.6 1729.5L1202.6 1764.44L1196.08 1764.44ZM1137.64 1699.34L1137.64 1694.55L1162 1694.55L1162 1701.37L1159.83 1701.37L1137.64 1699.34ZM1211.16 1722.54L1204.2 1694.99L1214.49 1700.06L1162 1700.06L1162 1694.55L1218.55 1694.55L1218.84 1722.54L1211.16 1722.54ZM1270.46 1802L1270.46 1797.21L1292.65 1795.18L1296.85 1795.18L1319.04 1797.21L1319.04 1802L1270.46 1802ZM1284.09 1802C1284.29 1793.78 1284.38 1785.52 1284.38 1777.2C1284.38 1768.79 1284.38 1760.34 1284.38 1751.83L1284.38 1744.87C1284.38 1736.46 1284.38 1728.1 1284.38 1719.78C1284.38 1711.37 1284.29 1702.96 1284.09 1694.55L1305.26 1694.55C1304.97 1702.77 1304.78 1711.18 1304.68 1719.78C1304.68 1728.29 1304.68 1737.38 1304.68 1747.04L1304.68 1750.96C1304.68 1759.76 1304.68 1768.36 1304.68 1776.77C1304.78 1785.18 1304.97 1793.59 1305.26 1802L1284.09 1802ZM1355.87 1803.88C1349.88 1803.88 1345.28 1802.92 1342.09 1800.98C1338.9 1798.95 1336.92 1795.38 1336.15 1790.25L1330.93 1768.65C1330.06 1764.69 1329 1761.45 1327.74 1758.93C1326.48 1756.32 1324.69 1754.44 1322.37 1753.28C1320.15 1752.02 1317.06 1751.39 1313.09 1751.39L1294.97 1751.39L1294.97 1746.32L1315.27 1746.32C1320.68 1746.32 1325.13 1745.26 1328.61 1743.13C1332.09 1740.91 1334.65 1738.01 1336.29 1734.43C1338.03 1730.76 1338.9 1726.7 1338.9 1722.25C1338.9 1715.1 1336.92 1709.59 1332.96 1705.72C1329.09 1701.85 1323.2 1699.92 1315.27 1699.92L1294.82 1699.92L1294.82 1694.55L1320.05 1694.55C1332.43 1694.55 1341.9 1696.97 1348.47 1701.8C1355.05 1706.54 1358.33 1713.21 1358.33 1721.81C1358.33 1726.45 1357.08 1730.76 1354.56 1734.72C1352.15 1738.68 1348.14 1742.02 1342.53 1744.72C1337.02 1747.33 1329.67 1748.93 1320.49 1749.51L1320.49 1747.91C1328.22 1748.2 1334.17 1749.27 1338.32 1751.1C1342.58 1752.84 1345.72 1755.41 1347.75 1758.79C1349.88 1762.17 1351.47 1766.43 1352.53 1771.55L1359.06 1800.26L1349.05 1795.76L1371.53 1797.21L1371.53 1802C1369.02 1802.58 1366.6 1803.01 1364.28 1803.3C1362.06 1803.69 1359.25 1803.88 1355.87 1803.88ZM1270.46 1699.34L1270.46 1694.55L1294.82 1694.55L1294.82 1701.37L1292.65 1701.37L1270.46 1699.34ZM1379.36 1802L1379.36 1797.21L1401.54 1795.18L1403.72 1795.18L1403.72 1802L1379.36 1802ZM1392.99 1802C1393.18 1793.78 1393.28 1785.52 1393.28 1777.2C1393.28 1768.79 1393.28 1760.34 1393.28 1751.83L1393.28 1744.87C1393.28 1736.46 1393.28 1728.1 1393.28 1719.78C1393.28 1711.37 1393.18 1702.96 1392.99 1694.55L1414.3 1694.55C1414.2 1702.77 1414.11 1711.13 1414.01 1719.64C1414.01 1728.15 1414.01 1736.89 1414.01 1745.88L1414.01 1749.94C1414.01 1759.22 1414.01 1768.12 1414.01 1776.62C1414.11 1785.13 1414.2 1793.59 1414.3 1802L1392.99 1802ZM1403.72 1802L1403.72 1796.63L1459.11 1796.63L1448.81 1801.42L1455.77 1773.14L1463.31 1773.14L1463.17 1802L1403.72 1802ZM1403.72 1749.94L1403.72 1744.72L1439.39 1744.72L1439.39 1749.94L1403.72 1749.94ZM1437.79 1764.44L1435.62 1748.35L1435.62 1745.3L1437.79 1729.5L1444.32 1729.5L1444.32 1764.44L1437.79 1764.44ZM1379.36 1699.34L1379.36 1694.55L1403.72 1694.55L1403.72 1701.37L1401.54 1701.37L1379.36 1699.34ZM1452.87 1722.54L1445.91 1694.99L1456.21 1700.06L1403.72 1700.06L1403.72 1694.55L1460.27 1694.55L1460.56 1722.54L1452.87 1722.54ZM1509.57 1804.75C1503.67 1804.75 1497.77 1803.98 1491.88 1802.43C1485.98 1800.89 1481 1798.76 1476.94 1796.05L1477.81 1772.27L1485.5 1772.27L1492.75 1799.68L1483.9 1795.91L1482.31 1790.4C1487.04 1793.78 1491.25 1796.05 1494.92 1797.21C1498.6 1798.28 1502.85 1798.81 1507.68 1798.81C1515.03 1798.81 1520.78 1797.17 1524.94 1793.88C1529.09 1790.5 1531.17 1785.76 1531.17 1779.67C1531.17 1776.29 1530.64 1773.39 1529.58 1770.97C1528.51 1768.55 1526.68 1766.38 1524.07 1764.44C1521.55 1762.51 1518.12 1760.63 1513.77 1758.79L1507.1 1755.89C1497.82 1751.73 1490.72 1747.04 1485.79 1741.82C1480.95 1736.6 1478.54 1729.84 1478.54 1721.52C1478.54 1715.14 1480.13 1709.78 1483.32 1705.43C1486.61 1700.98 1491.06 1697.65 1496.66 1695.42C1502.37 1693.1 1508.84 1691.94 1516.09 1691.94C1521.8 1691.94 1527.02 1692.67 1531.75 1694.12C1536.49 1695.47 1540.74 1697.45 1544.51 1700.06L1543.5 1722.68L1535.81 1722.68L1528.71 1696.58L1538.28 1700.64L1539.44 1706.44C1535.38 1703.16 1531.85 1700.89 1528.85 1699.63C1525.95 1698.37 1522.47 1697.74 1518.41 1697.74C1511.94 1697.74 1506.67 1699.29 1502.61 1702.38C1498.55 1705.48 1496.52 1709.88 1496.52 1715.58C1496.52 1720.8 1497.97 1724.96 1500.87 1728.05C1503.77 1731.14 1507.88 1733.85 1513.19 1736.17L1520.44 1739.36C1527.69 1742.55 1533.44 1745.74 1537.7 1748.93C1542.05 1752.12 1545.14 1755.65 1546.98 1759.51C1548.91 1763.38 1549.88 1767.97 1549.88 1773.29C1549.88 1779.57 1548.28 1785.08 1545.09 1789.82C1541.9 1794.46 1537.31 1798.13 1531.32 1800.84C1525.32 1803.45 1518.07 1804.75 1509.57 1804.75ZM1578.02 1802L1578.02 1797.21L1600.93 1795.18L1606.58 1795.18L1629.93 1797.21L1629.93 1802L1578.02 1802ZM1593.24 1802C1593.44 1793.78 1593.53 1785.52 1593.53 1777.2C1593.63 1768.79 1593.68 1760.34 1593.68 1751.83L1593.68 1744.87C1593.68 1736.46 1593.63 1728.1 1593.53 1719.78C1593.53 1711.37 1593.44 1702.96 1593.24 1694.55L1614.7 1694.55C1614.51 1702.77 1614.37 1711.13 1614.27 1719.64C1614.27 1728.05 1614.27 1736.46 1614.27 1744.87L1614.27 1751.68C1614.27 1760.09 1614.27 1768.5 1614.27 1776.91C1614.37 1785.23 1614.51 1793.59 1614.7 1802L1593.24 1802ZM1556.85 1724.71L1557.57 1694.55L1650.23 1694.55L1651.1 1724.71L1643.41 1724.71L1635.73 1694.55L1645.44 1700.06L1562.36 1700.06L1572.22 1694.55L1564.53 1724.71L1556.85 1724.71ZM1645.17 1802L1645.17 1797.21L1659.67 1795.33L1662.28 1795.33L1678.09 1797.21L1678.09 1802L1645.17 1802ZM1655.32 1802L1691.28 1693.97L1704.04 1693.97L1740.73 1802L1719.85 1802L1689.25 1706.88L1692.15 1706.88L1691.72 1708.91L1662.43 1802L1655.32 1802ZM1671.27 1767.05L1672.43 1762.12L1718.4 1762.12L1719.41 1767.05L1671.27 1767.05ZM1703.03 1802L1703.03 1797.21L1722.6 1795.18L1729.85 1795.18L1750.01 1797.21L1750.01 1802L1703.03 1802ZM1802.01 1804.75C1793.99 1804.75 1786.88 1803.3 1780.69 1800.4C1774.6 1797.5 1769.82 1792.82 1766.34 1786.34C1762.96 1779.77 1761.26 1770.97 1761.26 1759.95L1761.26 1743.85C1761.26 1735.73 1761.22 1727.57 1761.12 1719.35C1761.12 1711.04 1760.97 1702.77 1760.68 1694.55L1782.14 1694.55C1782.05 1702.77 1781.95 1710.99 1781.85 1719.2C1781.85 1727.32 1781.85 1735.54 1781.85 1743.85L1781.85 1757.77C1781.85 1766.67 1782.87 1773.77 1784.9 1779.09C1786.93 1784.41 1789.88 1788.27 1793.74 1790.69C1797.61 1793.01 1802.35 1794.17 1807.95 1794.17C1816.85 1794.17 1823.61 1791.27 1828.25 1785.47C1832.99 1779.67 1835.26 1770.1 1835.07 1756.76L1834.78 1694.55L1841.59 1694.55L1841.16 1757.92C1841.06 1773.87 1837.63 1785.66 1830.86 1793.3C1824.19 1800.94 1814.58 1804.75 1802.01 1804.75ZM1747.92 1699.34L1747.92 1694.55L1796.5 1694.55L1796.5 1699.34L1774.02 1701.37L1770.11 1701.37L1747.92 1699.34ZM1817.81 1699.34L1817.81 1694.55L1856.24 1694.55L1856.24 1699.34L1840.14 1701.51L1835.94 1701.51L1817.81 1699.34ZM1864.48 1802L1864.48 1797.21L1886.67 1795.18L1890.87 1795.18L1913.06 1797.21L1913.06 1802L1864.48 1802ZM1878.11 1802C1878.31 1793.78 1878.4 1785.52 1878.4 1777.2C1878.4 1768.79 1878.4 1760.34 1878.4 1751.83L1878.4 1744.87C1878.4 1736.46 1878.4 1728.1 1878.4 1719.78C1878.4 1711.37 1878.31 1702.96 1878.11 1694.55L1899.28 1694.55C1898.99 1702.77 1898.8 1711.18 1898.7 1719.78C1898.7 1728.29 1898.7 1737.38 1898.7 1747.04L1898.7 1750.96C1898.7 1759.76 1898.7 1768.36 1898.7 1776.77C1898.8 1785.18 1898.99 1793.59 1899.28 1802L1878.11 1802ZM1949.89 1803.88C1943.89 1803.88 1939.3 1802.92 1936.11 1800.98C1932.92 1798.95 1930.94 1795.38 1930.17 1790.25L1924.95 1768.65C1924.08 1764.69 1923.01 1761.45 1921.76 1758.93C1920.5 1756.32 1918.71 1754.44 1916.39 1753.28C1914.17 1752.02 1911.08 1751.39 1907.11 1751.39L1888.99 1751.39L1888.99 1746.32L1909.29 1746.32C1914.7 1746.32 1919.15 1745.26 1922.63 1743.13C1926.11 1740.91 1928.67 1738.01 1930.31 1734.43C1932.05 1730.76 1932.92 1726.7 1932.92 1722.25C1932.92 1715.1 1930.94 1709.59 1926.98 1705.72C1923.11 1701.85 1917.21 1699.92 1909.29 1699.92L1888.84 1699.92L1888.84 1694.55L1914.07 1694.55C1926.45 1694.55 1935.92 1696.97 1942.49 1701.8C1949.07 1706.54 1952.35 1713.21 1952.35 1721.81C1952.35 1726.45 1951.1 1730.76 1948.58 1734.72C1946.17 1738.68 1942.15 1742.02 1936.55 1744.72C1931.04 1747.33 1923.69 1748.93 1914.51 1749.51L1914.51 1747.91C1922.24 1748.2 1928.19 1749.27 1932.34 1751.1C1936.6 1752.84 1939.74 1755.41 1941.77 1758.79C1943.89 1762.17 1945.49 1766.43 1946.55 1771.55L1953.08 1800.26L1943.07 1795.76L1965.55 1797.21L1965.55 1802C1963.03 1802.58 1960.62 1803.01 1958.3 1803.3C1956.07 1803.69 1953.27 1803.88 1949.89 1803.88ZM1864.48 1699.34L1864.48 1694.55L1888.84 1694.55L1888.84 1701.37L1886.67 1701.37L1864.48 1699.34ZM1970.29 1802L1970.29 1797.21L1984.79 1795.33L1987.4 1795.33L2003.21 1797.21L2003.21 1802L1970.29 1802ZM1980.44 1802L2016.4 1693.97L2029.16 1693.97L2065.85 1802L2044.97 1802L2014.37 1706.88L2017.27 1706.88L2016.84 1708.91L1987.55 1802L1980.44 1802ZM1996.39 1767.05L1997.55 1762.12L2043.52 1762.12L2044.53 1767.05L1996.39 1767.05ZM2028.15 1802L2028.15 1797.21L2047.72 1795.18L2054.97 1795.18L2075.13 1797.21L2075.13 1802L2028.15 1802ZM2081.96 1802L2081.96 1797.21L2097.33 1795.18L2101.24 1795.18L2121.11 1797.21L2121.11 1802L2081.96 1802ZM2096.02 1802L2096.02 1698.61L2101.53 1698.61L2102.98 1764.15L2102.98 1802L2096.02 1802ZM2150.25 1699.34L2150.25 1694.55L2189.55 1694.55L2189.55 1699.34L2174.32 1701.37L2170.41 1701.37L2150.25 1699.34ZM2164.75 1802.58L2099.94 1708.33L2099.5 1707.89L2094.57 1700.5L2082.54 1699.34L2082.54 1694.55L2114.73 1694.55L2172.44 1778.8L2169.68 1779.81L2169.25 1736.75L2169.25 1694.55L2175.19 1694.55L2175.19 1802.58L2164.75 1802.58ZM2219.19 1802L2219.19 1797.21L2242.1 1795.18L2247.76 1795.18L2271.1 1797.21L2271.1 1802L2219.19 1802ZM2234.42 1802C2234.61 1793.78 2234.71 1785.52 2234.71 1777.2C2234.8 1768.79 2234.85 1760.34 2234.85 1751.83L2234.85 1744.87C2234.85 1736.46 2234.8 1728.1 2234.71 1719.78C2234.71 1711.37 2234.61 1702.96 2234.42 1694.55L2255.88 1694.55C2255.68 1702.77 2255.54 1711.13 2255.44 1719.64C2255.44 1728.05 2255.44 1736.46 2255.44 1744.87L2255.44 1751.68C2255.44 1760.09 2255.44 1768.5 2255.44 1776.91C2255.54 1785.23 2255.68 1793.59 2255.88 1802L2234.42 1802ZM2198.02 1724.71L2198.75 1694.55L2291.4 1694.55L2292.27 1724.71L2284.59 1724.71L2276.9 1694.55L2286.62 1700.06L2203.53 1700.06L2213.39 1694.55L2205.71 1724.71L2198.02 1724.71Z" fill="#9A0200"/>
</svg>
