<svg width="1840" height="480" viewBox="0 0 1840 480" fill="none" xmlns="http://www.w3.org/2000/svg">
<path d="M262.326 36.5454C277.957 41.6558 293.181 45.6425 307.499 51.7543C343.802 67.2513 367.137 94.392 376.534 132.986C379.286 144.289 381.857 155.664 383.755 167.132C384.515 171.721 383.235 176.648 382.753 183.189C379.488 180.909 377.885 180.045 376.602 178.839C374.185 176.567 372.203 173.767 369.589 171.781C364.424 167.857 360.37 169.337 360.126 175.863C359.748 185.972 358.383 196.315 364.926 205.658C367.213 208.923 367.52 213.742 368.189 217.938C369.75 227.741 371.031 237.59 372.319 247.434C372.745 250.692 373.346 254.045 373.005 257.264C371.393 272.481 369.76 287.708 367.547 302.845C366.597 309.343 364.243 315.638 362.474 322.011C362.211 322.959 361.448 323.786 361.266 324.736C355.996 352.129 336.278 368.595 316.026 384.671C287.926 406.978 256.801 424.155 224.009 438.36C209.242 444.756 193.405 447.461 177.518 449.59C169.267 450.696 160.967 451.493 152.764 452.877C130.099 456.703 109.038 452.908 89.6776 440.313C82.9822 435.957 76.4011 431.394 69.4902 427.406C47.5337 414.739 34.4172 394.129 21.5076 373.559C17.5632 367.274 15.3107 359.456 14.056 352.041C9.95053 327.778 6.29066 303.424 3.16703 279.014C0.257495 256.279 3.50953 233.835 8.17294 211.564C9.05372 207.358 10.069 203.045 9.99333 198.799C9.73339 184.223 12.7568 170.447 18.3585 157.041C21.8177 148.762 24.5419 140.175 27.5701 131.717C34.0318 113.671 44.5361 98.427 60.327 87.4972C75.0789 77.2866 90.091 67.329 105.71 58.5427C114.264 53.7307 124.186 51.1521 133.713 48.3089C150.929 43.1706 168.249 38.3484 185.64 33.8348C208 28.0313 230.416 27.6231 252.731 34.4291C255.59 35.3009 258.578 35.7464 262.326 36.5454ZM109.089 195.188C110.913 193.649 112.737 192.11 115.558 191.289C116.001 192.398 116.443 193.507 115.903 195.42C114.659 196.537 113.416 197.654 111.282 199.077C110.758 199.569 110.628 200.149 110.769 202.233C109.647 204.242 108.569 206.277 107.395 208.256C92.1438 233.977 86.9049 262.174 87.8876 291.565C88.3661 305.873 90.7814 320.049 100.695 331.688C105.65 337.506 110.249 343.658 114.653 349.909C119.597 356.927 126.18 359.487 134.515 358.699C147.028 357.515 158.493 353.331 169.097 346.77C184.905 336.989 196.785 322.959 208.749 309.14C224.907 290.477 239.173 270.576 249.203 247.742C258.173 227.322 262.048 205.811 264.243 183.958C265.24 174.031 266.535 164.912 274.423 157.837C276.855 155.656 276.916 152.688 274.557 149.809C269.512 143.653 259.813 140.718 252.249 143.883C247.526 145.86 244.176 145.465 241.026 141.138C239.389 138.89 236.904 136.868 234.36 135.738C223.723 131.012 212.862 126.79 202.201 122.114C197.518 120.059 193.849 120.572 190.849 124.775C187.26 129.801 182.285 131.673 176.228 131.923C164.165 132.42 153.332 136.759 144.371 144.68C131.696 155.884 119.547 167.683 107.315 179.154C107.315 179.154 107.533 178.937 106.228 180.523C105.18 181.399 104.132 182.274 103.224 183.104C103.224 183.104 103.363 182.853 102.578 184.338C101.775 185.109 100.973 185.88 99.385 186.926C98.9137 187.336 98.7597 187.843 98.8223 190.107C98.724 192.314 98.6256 194.52 97.6149 197.606C101.258 202.201 102.833 202.021 109.089 195.188Z" fill="#030202"/>
<path d="M1158.9 437.114C1152.09 438.135 1146.22 439.427 1140.28 440C1134.56 440.552 1132.71 439.152 1132.5 433.555C1131.62 409.628 1129.9 385.736 1134.82 361.878C1137.36 349.554 1137.5 336.745 1138.94 324.179C1142.3 294.757 1145.31 265.282 1149.37 235.954C1153.25 207.947 1158.39 180.116 1162.75 152.172C1165 137.727 1166.07 123.069 1168.92 108.753C1172.02 93.1072 1176.63 77.7626 1180.45 62.2542C1183 51.924 1185.17 41.5004 1187.77 31.1862C1189.94 22.5919 1193.26 22.044 1200.08 27.7329C1204.56 31.4691 1210.09 33.9305 1214.98 37.2116C1217.91 39.1778 1221.01 41.2319 1223.16 43.9404C1226.82 48.5533 1230.54 52.3885 1236.94 52.562C1242.04 52.6999 1243.33 56.7792 1244.22 60.7429C1246.97 73.0666 1249.55 85.4281 1252.2 97.7731C1253.32 102.974 1254.37 108.192 1255.6 113.365C1260.85 135.37 1258.71 156.97 1252.15 178.334C1249.94 185.512 1250.54 192.2 1255.81 197.88C1260.55 202.984 1265.18 208.283 1270.49 212.742C1276.02 217.387 1283.11 216.506 1286.9 210.412C1290.9 203.997 1295.12 197.049 1296.47 189.817C1298.31 179.883 1302.91 171.677 1308.12 163.617C1314.79 153.29 1322 143.312 1329.02 133.208C1338.95 118.907 1350.26 105.924 1364.23 95.3225C1367.2 93.0707 1369.2 89.4029 1371.29 86.1626C1374.7 80.8978 1376.94 74.5692 1381.24 70.2604C1389.87 61.6262 1396.75 51.174 1407.63 44.7147C1410.08 43.2593 1410.89 39.1713 1412.69 36.4543C1414.07 34.3805 1415.82 32.5579 1417.41 30.6165C1426.31 34.9008 1428.94 43.5089 1434.39 49.619C1436.37 51.8424 1437.74 54.6354 1439.8 56.7568C1443.97 61.0252 1446.89 60.7037 1450.31 55.8231C1451.78 53.7255 1452.93 51.4017 1454.67 48.415C1460.51 54.216 1464.1 60.782 1465.86 67.467C1472.96 94.4669 1479.08 121.723 1485.79 148.828C1489.79 164.982 1482.96 176.814 1470.91 186.214C1449.4 202.995 1427.38 219.125 1405.91 235.956C1392.33 246.597 1379.32 257.965 1366.15 269.113C1361.88 272.721 1357.46 275.793 1350.7 277.786C1352.62 267.805 1360.42 260.652 1356.73 250.456C1344.67 251.491 1336.5 257.243 1332.61 268.804C1332.74 269.539 1332.63 270.461 1333.02 270.787C1342.17 278.497 1347.74 289.011 1354.95 298.25C1361.26 306.338 1368.98 313.311 1375.85 320.979C1386.74 333.127 1397.67 345.253 1408.14 357.755C1415.58 366.628 1424.2 373.733 1434.9 377.983C1440.23 380.101 1442.34 383.642 1443.65 388.967C1445.22 395.372 1447.6 401.675 1450.41 407.662C1456.69 421.087 1452.64 433.364 1443.35 442.108C1438.53 446.65 1433.77 451.295 1429.32 456.201C1425.38 460.555 1421.08 461.885 1415.12 461.188C1405.01 460.006 1397.56 455.463 1390.07 448.512C1377.39 436.732 1364.25 425.569 1353.43 411.895C1342.28 397.807 1330.95 383.832 1319.05 370.38C1304.07 353.439 1288.69 336.82 1272.94 320.587C1266.03 313.463 1258.02 307.317 1250.08 301.298C1239.06 292.948 1226.98 298.084 1223.7 311.796C1219.83 327.966 1215.59 344.046 1211.47 360.155C1209.99 365.937 1207.67 371.609 1207.02 377.474C1205.75 389.028 1205.51 400.692 1204.58 412.289C1204.13 417.893 1203.7 423.63 1202.14 428.983C1199.7 437.368 1195.4 440.024 1186.55 439.912C1183.9 439.878 1181.26 439.414 1178.62 439.127C1172.35 438.448 1166.08 437.757 1158.9 437.114Z" fill="#030303"/>
<path d="M665.553 239.475C688.367 254.758 707.486 272.728 718.695 297.383C731.404 325.335 731.411 353.506 716.328 380.877C710.389 391.657 704.043 402.217 697.678 412.754C695.986 415.556 693.944 418.444 691.371 420.369C671.936 434.908 652.293 448.252 628.472 456.061C585.977 469.991 543.776 469.075 501.446 458.605C472.147 451.358 446.653 436.329 426.747 413.074C422.46 408.066 418.831 402.328 415.757 396.476C404.116 374.316 394.443 351.381 390.257 326.484C388.159 314.009 389.084 302.363 396.112 291.014C400.38 284.123 401.974 275.574 404.742 267.76C405.51 265.591 406.182 263.387 407.598 259.059C409.806 262.905 411.58 265.087 412.383 267.582C414.114 272.96 415.265 278.522 416.804 283.966C418.528 290.064 421.582 294.441 428.564 296.046C431.91 296.815 435.073 300.195 437.413 303.117C441.324 308 444.358 313.574 448.044 318.652C451.244 323.061 454.324 327.469 453.199 333.233C451.976 339.501 455.342 342.715 460.518 344.408C465.178 345.932 468.34 348.839 471.527 352.465C484.285 366.98 500.28 377.015 517.902 384.624C521.257 386.072 524.451 387.931 527.876 389.169C534.746 391.651 541.395 394.197 548.629 388.919C551.853 386.567 556.75 386.092 560.984 385.606C584.122 382.946 600.542 370.914 610.682 350.226C614.628 342.175 618.191 333.897 621.269 325.481C622.268 322.75 622.175 318.727 620.851 316.202C616.685 308.259 611.912 300.605 606.98 293.099C598.496 280.188 586.07 272.776 571.304 269.386C555.084 265.662 538.863 261.56 522.412 259.316C499.169 256.146 477.999 248.127 458.191 235.994C451.677 232.004 444.97 228.169 439.059 223.39C427.231 213.825 422.15 200.511 420.737 185.804C418.994 167.67 421.385 149.895 426.969 132.586C430.397 121.962 436.436 112.833 443.91 104.613C447.041 101.169 450.335 97.8544 453.258 94.2402C479.705 61.5341 515.301 46.4046 555.812 40.609C560.413 39.9508 565.005 39.1323 569.531 38.0833C575.247 36.7587 579.785 37.276 583.16 43.0586C586.218 48.2967 596.885 50.7081 601.531 47.4307C603.04 46.3662 603.802 43.6359 604.091 41.5544C605.197 33.593 605.081 33.7825 613.133 33.4671C629.223 32.8372 644.286 35.5296 657.422 45.66C659.752 47.4567 662.581 48.7729 665.371 49.7785C678.586 54.5411 689.029 62.5902 697.363 74.0277C709.011 90.0129 719.686 106.388 724.039 125.996C725.695 133.452 726.785 141.064 727.638 148.661C728.654 157.726 725.626 162.563 717.174 165.359C704.535 169.541 691.836 173.566 679.049 177.265C669.596 180 665.216 178.107 661.941 168.781C652.019 140.533 630.665 124.417 604.78 112.212C580.919 100.961 556.143 102.44 531.279 105.44C518.583 106.971 509.295 115.953 499.656 123.608C499.155 124.006 498.83 124.648 498.481 125.212C491.731 136.123 494.541 161.137 503.532 170.449C514.054 181.347 527.237 187.549 541.592 191.256C549.62 193.329 557.895 194.859 566.151 195.564C598.985 198.365 628.114 210.13 653.847 230.582C657.494 233.482 661.282 236.204 665.553 239.475Z" fill="#040303"/>
<path d="M1462.41 286.185C1453.13 279.642 1443.86 274.158 1435.99 267.101C1423.66 256.035 1424.3 244.994 1436.59 234.077C1437.09 233.635 1437.71 233.319 1438.16 232.834C1446.35 223.861 1456.36 221.477 1468.5 221.467C1496.45 221.444 1524.39 219.684 1552.33 218.709C1555.63 218.594 1558.96 218.811 1562.25 219.17C1570.27 220.047 1573.08 218.79 1576.67 211.662C1579.51 206.026 1581.85 200.139 1584.67 194.494C1600.89 162.067 1617.16 129.669 1633.46 97.2853C1639.14 86.004 1644.41 74.8493 1646.12 61.8797C1647.8 49.1548 1655.44 38.3152 1663.97 29.0371C1667.61 25.0835 1674.38 23.5042 1680.03 22.0376C1687.39 20.1297 1695.15 19.8112 1702.55 18.0372C1707.72 16.7974 1711.73 17.823 1715.29 21.3868C1720.93 27.0351 1726.81 32.4945 1731.95 38.5689C1735.65 42.9381 1737.85 48.0303 1734.85 54.2486C1733.79 56.4519 1734.2 59.9762 1735.14 62.4331C1744.08 85.7022 1753.6 108.753 1762.32 132.102C1771.15 155.731 1781.77 178.819 1785.66 204.063C1786.26 208.004 1786.96 211.943 1787.3 215.91C1788.3 227.601 1790.52 229.87 1802.57 231.281C1810.18 232.172 1817.78 233.103 1825.37 234.155C1830.04 234.802 1834.36 236.236 1837.17 241.069C1833.21 245.266 1828.76 246.155 1823.49 245.537C1812.42 244.241 1798.66 253.596 1796.59 264.385C1795.91 267.897 1796.84 272.556 1798.78 275.567C1803.6 283.059 1804.14 290.949 1803.99 299.456C1803.69 315.743 1803.43 332.082 1804.44 348.32C1805 357.44 1805.08 366.255 1802.62 375.001C1801.23 379.961 1801.02 384.504 1803.14 389.516C1807.25 399.256 1804.19 409.277 1802.78 419.08C1802.16 423.341 1798 424.158 1794.14 424.306C1782.26 424.76 1773.54 414.474 1774.95 401.565C1775.89 392.96 1777.09 384.381 1777.92 375.767C1778.37 371.136 1778.5 366.45 1778.4 361.797C1778.29 356.98 1776.79 352.677 1771.31 349.589C1768.65 352.992 1765.94 356.465 1763.04 360.177C1756.06 356.309 1753.2 349.718 1749.91 343.81C1747.08 338.738 1744.24 334.338 1738.88 331.483C1733.63 328.688 1731.13 323.813 1730.17 317.712C1728.63 307.881 1726.54 298.111 1724.17 288.443C1721.92 279.291 1720.23 277.841 1710.81 279.547C1694.79 282.444 1678.84 285.863 1663.08 289.882C1652.8 292.502 1643.01 297.003 1632.78 299.843C1625.45 301.877 1617.78 302.938 1610.19 303.741C1600.81 304.733 1594.54 309.195 1592.16 318.325C1589.84 327.282 1587.62 336.304 1586.13 345.425C1585.43 349.685 1586.26 349.821 1591.71 351.745C1596.12 345.816 1600.36 340.093 1604.64 334.402C1605.43 333.341 1606.28 331.709 1607.31 331.532C1614.46 330.308 1618.12 326.803 1616.51 319.119C1616.48 318.994 1619.25 318.283 1621.33 317.665C1622.56 323.925 1620.28 328.72 1617.87 333.625C1614.68 340.108 1610.16 346.543 1609.26 353.4C1607.88 363.818 1608.67 374.614 1609.44 385.185C1609.86 391.059 1615.31 393.824 1620.03 396.27C1625.34 399.02 1630.76 401.749 1636.43 403.563C1643.88 405.947 1646.27 411.384 1645.95 418.116C1645.01 437.666 1640.83 447.105 1622.37 456.253C1613.86 460.471 1604.61 461.907 1595.17 461.603C1582.52 461.197 1569.87 460.564 1557.23 460.024C1548.63 459.657 1542.06 456.178 1537.49 448.53C1535.51 445.223 1532.55 442.014 1529.26 440.073C1517.83 433.331 1506.2 426.891 1494.37 420.882C1487.19 417.231 1485.32 414.764 1487.71 406.816C1491.69 393.597 1498.21 381.76 1507.4 371.324C1519.32 357.79 1525.03 341.006 1530.95 324.411C1532.68 319.568 1529.44 317.706 1525.47 316.891C1502.06 312.094 1482.84 298.723 1462.41 286.185ZM1684.12 145.303C1679.46 132.132 1674.6 119.029 1670.25 105.757C1668.42 100.189 1664.43 97.3035 1660.08 94.1226C1654.77 98.8401 1653.91 104.54 1653.54 110.636C1653.17 116.915 1653.64 123.822 1651.13 129.256C1647.78 136.541 1645.12 143.751 1644.79 151.692C1637.97 153.66 1632.48 156.487 1633.98 164.18C1636.33 176.288 1632.71 187.196 1628.38 198.142C1627.06 201.47 1626.31 205.147 1626.01 208.723C1625.66 212.913 1627.91 215.767 1632.26 216.309C1637.54 216.967 1642.84 217.639 1648.16 217.855C1662.8 218.45 1677.45 218.846 1692.1 219.25C1702.69 219.542 1705.13 216.47 1702.77 205.947C1702.34 203.998 1701.84 202.057 1701.24 200.151C1695.69 182.373 1690.11 164.602 1684.12 145.303ZM1796.77 335.779C1799.62 331.649 1796.74 329.513 1793.59 328.313C1792.33 327.834 1789.07 329.201 1788.79 330.269C1788.23 332.415 1788.43 335.3 1789.5 337.217C1791.37 340.561 1793.81 339.034 1796.77 335.779Z" fill="#040404"/>
<path d="M761.012 213.811C786.934 212.964 811.904 212.111 836.878 211.376C840.523 211.269 844.192 211.647 847.839 211.937C859.33 212.852 861.497 211.628 865.955 200.809C868.74 194.05 870.753 186.931 873.976 180.4C887.071 153.869 900.455 127.48 913.826 101.087C919.237 90.4046 925.037 79.9172 930.329 69.1778C931.729 66.3359 932.392 62.9122 932.554 59.7134C933.668 37.6374 948.305 19.7692 969.502 14.969C975.018 13.7197 980.585 12.6775 986.067 11.2978C992.761 9.61325 998.555 11.042 1003.68 15.5973C1007.17 18.6889 1010.87 21.5427 1014.21 24.7767C1017.88 28.3307 1020.4 32.5398 1020.44 37.9498C1020.57 55.746 1028.13 71.434 1034.47 87.5023C1044.72 113.471 1054.62 139.578 1064.84 165.559C1070.05 178.795 1071.86 192.557 1072.19 206.632C1072.5 219.658 1075.8 222.665 1088.7 224.141C1098.58 225.271 1108.35 227.361 1118.12 229.313C1120.49 229.787 1122.63 231.395 1125.13 232.602C1123.02 238.513 1118.63 237.718 1114.91 237.982C1110.94 238.263 1106.87 237.694 1102.99 238.364C1092.68 240.143 1086.51 247.193 1086 257.542C1085.76 262.52 1086.06 267.531 1086.24 272.521C1086.76 286.476 1087.34 300.429 1087.92 314.381C1087.99 316.036 1087.88 317.786 1088.37 319.322C1090.6 326.196 1089.08 332.564 1085.7 338.532C1079.64 349.26 1078.37 361.164 1076.56 373C1074.95 383.52 1073.09 394.009 1070.98 404.441C1070.39 407.395 1068.57 410.103 1067.32 412.924C1066.67 412.802 1066.02 412.68 1065.38 412.557C1064.97 410.821 1064.27 409.095 1064.21 407.346C1064.01 402.032 1063.85 396.702 1064.06 391.393C1064.26 386.428 1063.99 381.144 1065.62 376.603C1068.4 368.809 1067.2 361.512 1065.13 354.087C1063.29 347.467 1060.99 346.099 1054.19 347.172C1052.88 347.379 1051.64 347.987 1050.34 348.234C1044.07 349.421 1041.62 348.619 1039.41 342.615C1037.36 337.079 1034.89 333.619 1028.36 333.116C1023.47 332.74 1021.8 328.269 1020.91 323.692C1018.15 309.66 1015.2 295.668 1012.33 281.659C1010.65 273.409 1009.01 272.16 1000.94 273.004C985.379 274.631 969.662 275.58 955.663 283.807C954.546 284.464 953.163 284.749 951.864 285.004C932.607 288.791 913.363 292.653 894.072 296.258C884.7 298.009 882.217 299.829 880.14 309.212C878.271 317.656 876.876 326.204 875.223 334.697C874.329 339.287 875.621 343.103 879.186 346.933C891.724 338.22 891.675 321.7 901.807 310.563C906.23 316.506 907.735 321.643 903.729 326.878C892.399 341.682 896.182 358.68 896.627 375.101C896.701 377.837 899.368 381.294 901.819 383.027C909.384 388.377 917.221 393.424 925.342 397.881C932.666 401.901 933.556 402.563 932.968 410.992C932.713 414.645 932.476 418.313 931.938 421.93C930.017 434.84 923.193 444.278 910.883 448.759C904.715 451.004 897.992 452.384 891.439 452.766C878.816 453.501 866.134 453.172 853.48 453.436C845.437 453.604 838.439 450.45 831.943 446.398C813.876 435.126 795.963 423.605 778.131 411.964C772.019 407.974 771.442 404.648 773.904 397.455C778.189 384.933 784.827 374.017 794.905 365.269C801.599 359.458 805.812 351.901 809.1 343.822C812.104 336.441 814.98 329.004 817.726 321.524C820.751 313.285 818.94 309.761 810.402 307.712C775.506 299.342 746.086 281.074 719.663 257.485C710.063 248.915 710.429 240.152 719.043 230.634C730.156 218.353 743.852 213.241 761.012 213.811ZM981.057 166.832C975.603 151.137 970.183 135.43 964.682 119.752C961.492 110.661 958.35 101.545 954.81 92.5893C953.606 89.5422 951.252 86.9495 949.392 84.1017C942.734 87.6697 943.327 93.3699 942.481 97.9315C938.649 118.609 933.807 139.051 925.314 158.276C918.909 172.774 918.977 189.753 907.404 202.234C912.201 208.72 918.809 209.898 925.438 210.115C944.738 210.747 964.049 211.149 983.358 211.306C992.555 211.38 994.802 208.18 992.06 199.53C988.743 189.065 985.079 178.71 981.057 166.832Z" fill="#040404"/>
<path d="M1753.31 400.368C1753.81 389.362 1747.92 381.288 1744.02 372.579C1741.49 366.93 1741.26 367.032 1742.39 359.084C1749.27 366.31 1756.18 372.408 1761.58 379.637C1765.64 385.06 1765.88 392.256 1763.89 398.895C1762.07 404.964 1758.39 405.584 1753.31 400.368Z" fill="#222020"/>
</svg>
